<svg xmlns="http://www.w3.org/2000/svg" xmlns:xlink="http://www.w3.org/1999/xlink" width="1920" height="936" viewBox="0 0 1920 936"><defs><style>.a{fill:url(#a);}.b{clip-path:url(#c);}.c{fill:#fff;}</style><linearGradient id="a" x1="1.062" y1="1.291" x2="-0.007" y2="-0.213" gradientUnits="objectBoundingBox"><stop offset="0" stop-color="#fff"/><stop offset="0.49" stop-color="#b7d6de"/><stop offset="1" stop-color="#fff"/></linearGradient><clipPath id="c"><rect class="a" width="1920" height="936" transform="translate(0 0)"/></clipPath></defs><g transform="translate(0 0)"><g transform="translate(0 0)"><rect class="a" width="1920" height="936" transform="translate(0 0)"/><g class="b"><g transform="translate(0 -629.619)"><path class="c" d="M591.661,85.887l.013-.007v.013Z" transform="translate(1380.141 822.827)"/><path class="c" d="M583.962,72.542l.678.378-.678.384Z" transform="translate(1362.184 792.821)"/><path class="c" d="M591.459,59.835l1.028-.574v1.153Z" transform="translate(1379.671 762.941)"/><path class="c" d="M583.855,45.914l1.751.983-1.751.983Z" transform="translate(1361.935 732.913)"/><path class="c" d="M606.9,59.379l.336.189-.336.2Z" transform="translate(1415.682 763.207)"/><path class="c" d="M591.316,33.676l1.745-.983v1.966Z" transform="translate(1379.336 703.169)"/><path class="c" d="M583.782,19.343l2.482,1.4-2.482,1.4Z" transform="translate(1361.763 673.136)"/><path class="c" d="M614.458,46.426l.536-.3v.605Z" transform="translate(1433.319 733.384)"/><path class="c" d="M606.829,32.817l1.028.58-1.028.579Z" transform="translate(1415.524 703.448)"/><path class="c" d="M591.242,7.377l2.107-1.191V8.562Z" transform="translate(1379.165 643.536)"/><path class="c" d="M583.757-7.142,586.491-5.6l-2.734,1.537Z" transform="translate(1361.704 613.552)"/><path class="c" d="M629.829,46.214l.014.006-.014.012Z" transform="translate(1469.176 733.59)"/><path class="c" d="M614.428,20.036l.678-.378v.757Z" transform="translate(1433.251 673.843)"/><path class="c" d="M606.829,6.374l1.028.58-1.028.579Z" transform="translate(1415.524 643.959)"/><path class="c" d="M591.242-19.061l2.107-1.2v2.382Z" transform="translate(1379.165 584.043)"/><path class="c" d="M583.782-33.542l2.482,1.4-2.482,1.386Z" transform="translate(1361.763 554.159)"/><path class="c" d="M637.462,33l.013-.007v.019Z" transform="translate(1486.98 703.845)"/><path class="c" d="M629.829,19.772l.014.006-.014.007Z" transform="translate(1469.176 674.101)"/><path class="c" d="M614.5-6.538l.336-.189v.378Z" transform="translate(1433.414 614.485)"/><path class="c" d="M606.862-20.008l.679.384-.679.378Z" transform="translate(1415.6 584.606)"/><path class="c" d="M591.387-45.8l1.383-.775v1.557Z" transform="translate(1379.504 524.842)"/><path class="c" d="M583.892-59.794l1.383.775-1.383.775Z" transform="translate(1362.021 495.097)"/><path class="c" d="M606.909-46.375l.232.132-.232.132Z" transform="translate(1415.709 525.287)"/><path class="c" d="M591.661-72.772l.013-.007v.013Z" transform="translate(1380.141 465.885)"/><path class="c" d="M417.436,204.838l.219.12-.219.126Z" transform="translate(973.736 1090.453)"/><path class="c" d="M401.96,205.32l1.157-.643v1.3Z" transform="translate(937.634 1090.091)"/><path class="c" d="M424.724,192.365l1.835-1.027v2.06Z" transform="translate(990.735 1060.08)"/><path class="c" d="M394.114,190.886l4.433,2.5-4.433,2.5Z" transform="translate(919.333 1059.064)"/><path class="c" d="M379.192,218.288l.491-.278v.555Z" transform="translate(884.525 1120.088)"/><path class="c" d="M416.93,177.519l5.274,2.968-5.274,2.968Z" transform="translate(972.556 1028.992)"/><path class="c" d="M400.806,181.129l6.922-3.894v7.789Z" transform="translate(934.943 1028.351)"/><path class="c" d="M378.12,193.936l5.848-3.3v6.6Z" transform="translate(882.024 1058.51)"/><path class="c" d="M371.273,204.212l3.839,2.156-3.839,2.161Z" transform="translate(866.052 1089.044)"/><path class="c" d="M440.3,191.557l.556.316-.556.315Z" transform="translate(1027.076 1060.573)"/><path class="c" d="M439.82,164.277l5.383,3.038-5.383,3.031Z" transform="translate(1025.949 999.2)"/><path class="c" d="M423.527,168.257l7.819-4.4v8.8Z" transform="translate(987.944 998.257)"/><path class="c" d="M393.358,163.133l11.988,6.756-11.988,6.749Z" transform="translate(917.569 996.626)"/><path class="c" d="M376.469,170.708l14.1-7.94v15.88Z" transform="translate(878.174 995.806)"/><path class="c" d="M370.584,176.575l10.722,6.037-10.722,6.037Z" transform="translate(864.446 1026.868)"/><path class="c" d="M355.11,207.371l6.4-3.6v7.21Z" transform="translate(828.349 1088.04)"/><path class="c" d="M348.282,217.274l4.75,2.672-4.75,2.678Z" transform="translate(812.422 1118.43)"/><path class="c" d="M356.242,231.608l.737-.416v.832Z" transform="translate(830.991 1149.741)"/><path class="c" d="M447.668,179.061l1.615-.908v1.815Z" transform="translate(1044.256 1030.418)"/><path class="c" d="M446.607,154.7l6.922-3.907V158.6Z" transform="translate(1041.781 968.853)"/><path class="c" d="M416.157,149.733l13.015,7.336L416.157,164.4Z" transform="translate(970.751 966.48)"/><path class="c" d="M399.042,158.124l15.743-8.861v17.721Z" transform="translate(930.827 965.424)"/><path class="c" d="M369.62,148.463l20.364,11.463L369.62,171.383Z" transform="translate(862.198 963.623)"/><path class="c" d="M353.768,183.541l13.106-7.38v14.765Z" transform="translate(825.219 1025.938)"/><path class="c" d="M347.679,189.788l10.773,6.062-10.773,6.062Z" transform="translate(811.016 1056.594)"/><path class="c" d="M331.89,221.212l7.994-4.5v9.012Z" transform="translate(774.186 1117.165)"/><path class="c" d="M463.255,178.427l.032.019-.032.019Z" transform="translate(1080.615 1031.034)"/><path class="c" d="M439.209,136.779l11.484,6.466-11.484,6.465Z" transform="translate(1024.525 937.338)"/><path class="c" d="M422.046,144.7l15.22-8.571v17.135Z" transform="translate(984.488 935.88)"/><path class="c" d="M392.437,135.094l21.2,11.942-21.2,11.935Z" transform="translate(915.42 933.547)"/><path class="c" d="M374.606,147.9l23.421-13.184v26.367Z" transform="translate(873.827 932.687)"/><path class="c" d="M351.8,160.929l22.93-12.913v25.824Z" transform="translate(820.636 962.619)"/><path class="c" d="M346.82,161.858l19.355,10.9-19.355,10.89Z" transform="translate(809.012 993.759)"/><path class="c" d="M330.618,197.251l14.353-8.086v16.177Z" transform="translate(771.218 1055.194)"/><path class="c" d="M324.508,202.54l13.487,7.588-13.487,7.6Z" transform="translate(756.965 1085.283)"/><path class="c" d="M325.146,230.088l7.11,4-7.11,4Z" transform="translate(758.453 1147.258)"/><path class="c" d="M333.025,245.449l2.327-1.311v2.615Z" transform="translate(776.832 1178.866)"/><path class="c" d="M470.682,165.621l1.047-.592v1.185Z" transform="translate(1097.939 1000.892)"/><path class="c" d="M462.84,151.267l4.182,2.351-4.182,2.344Z" transform="translate(1079.647 969.931)"/><path class="c" d="M462.353,123.981l9.041,5.092-9.041,5.092Z" transform="translate(1078.512 908.544)"/><path class="c" d="M445.535,130.338l12.278-6.919v13.826Z" transform="translate(1039.28 907.279)"/><path class="c" d="M415.441,122.055,435.6,133.4l-20.157,11.343Z" transform="translate(969.082 904.212)"/><path class="c" d="M397.515,134.661,420.89,121.5v26.323Z" transform="translate(927.267 902.956)"/><path class="c" d="M368.841,120.669l28.151,15.855-28.151,15.842Z" transform="translate(860.379 901.093)"/><path class="c" d="M350.368,137.283l30.1-16.952v33.9Z" transform="translate(817.289 900.334)"/><path class="c" d="M345.961,133.925l27.95,15.742L345.961,165.4Z" transform="translate(807.008 930.916)"/><path class="c" d="M328.956,174.05l22.664-12.767v25.535Z" transform="translate(767.342 992.464)"/><path class="c" d="M323.812,174.893l20.435,11.5L323.812,197.9Z" transform="translate(755.341 1023.085)"/><path class="c" d="M306.817,212.222l18.857-10.613V222.84Z" transform="translate(715.698 1083.189)"/><path class="c" d="M301.11,214.9l18.457,10.386-18.457,10.4Z" transform="translate(702.386 1113.091)"/><path class="c" d="M308.143,236.088,320.37,229.2v13.77Z" transform="translate(718.792 1145.261)"/><path class="c" d="M325.681,257.459l1.744.983-1.744.983Z" transform="translate(759.702 1208.837)"/><path class="c" d="M469.829,140.846l5.313-3v5.993Z" transform="translate(1095.949 939.737)"/><path class="c" d="M468.971,116.063l9.6-5.4v10.8Z" transform="translate(1093.95 878.582)"/><path class="c" d="M438.641,109.352l17.164,9.661-17.164,9.661Z" transform="translate(1023.2 875.632)"/><path class="c" d="M420.863,120.565,442,108.661v23.808Z" transform="translate(981.729 874.08)"/><path class="c" d="M391.8,107.548l27.575,15.521L391.8,138.591Z" transform="translate(913.932 871.575)"/><path class="c" d="M373.313,123.972,403.2,107.147V140.8Z" transform="translate(870.811 870.672)"/><path class="c" d="M345.466,106.625l32.9,18.521-32.9,18.521Z" transform="translate(805.854 869.499)"/><path class="c" d="M327.414,150.609l30.368-17.1V167.7Z" transform="translate(763.746 929.973)"/><path class="c" d="M322.98,147.006l28.759,16.2L322.98,179.391Z" transform="translate(753.401 960.346)"/><path class="c" d="M305.492,188.362l25.482-14.343V202.7Z" transform="translate(712.609 1021.117)"/><path class="c" d="M300.483,187.372,325.2,201.286,300.483,215.2Z" transform="translate(700.925 1051.159)"/><path class="c" d="M282.653,227.9l25.172-14.166v28.345Z" transform="translate(659.332 1110.473)"/><path class="c" d="M301.8,242.539l11.555,6.5-11.555,6.5Z" transform="translate(703.996 1175.271)"/><path class="c" d="M309.421,260.035l5.836-3.283v6.567Z" transform="translate(721.773 1207.245)"/><path class="c" d="M485.9,138.315l2.611,1.475-2.611,1.468Z" transform="translate(1133.43 940.792)"/><path class="c" d="M461.923,96.79l13.358,7.518-13.358,7.518Z" transform="translate(1077.508 847.371)"/><path class="c" d="M444.581,105.747l17.049-9.6v19.195Z" transform="translate(1037.055 845.932)"/><path class="c" d="M414.954,94.767l25.029,14.091-25.029,14.091Z" transform="translate(967.946 842.821)"/><path class="c" d="M396.542,110.11l28.236-15.9v31.8Z" transform="translate(924.996 841.569)"/><path class="c" d="M368.418,93.493,400.8,111.724l-32.385,18.231Z" transform="translate(859.393 839.955)"/><path class="c" d="M349.686,112.165,383.2,93.3v37.741Z" transform="translate(815.697 839.514)"/><path class="c" d="M326.573,125.8l34.575-19.46v38.926Z" transform="translate(761.783 868.849)"/><path class="c" d="M322.46,119.664l33.954,19.12L322.46,157.891Z" transform="translate(752.189 898.833)"/><path class="c" d="M304.1,164.633l32.429-18.263V182.9Z" transform="translate(709.365 958.915)"/><path class="c" d="M299.789,159.727l31.654,17.821L299.789,195.37Z" transform="translate(699.305 988.965)"/><path class="c" d="M281.452,203.8l31.176-17.544v35.1Z" transform="translate(656.532 1048.646)"/><path class="c" d="M276.855,199.329l32,18.023-32,18.022Z" transform="translate(645.807 1078.059)"/><path class="c" d="M277.512,226.916l25.424,14.312-25.424,14.311Z" transform="translate(647.341 1140.122)"/><path class="c" d="M284.15,251.438l17.688-9.963V261.4Z" transform="translate(662.824 1172.876)"/><path class="c" d="M302.444,270.1l5.119,2.886-5.119,2.874Z" transform="translate(705.498 1237.269)"/><path class="c" d="M310.383,284.608l1.027-.58v1.153Z" transform="translate(724.017 1268.61)"/><path class="c" d="M493.143,126.813l3.244-1.827v3.655Z" transform="translate(1150.335 910.804)"/><path class="c" d="M485.5,111.177l6.631,3.73-6.631,3.737Z" transform="translate(1132.494 879.738)"/><path class="c" d="M485.142,84.123,495.3,89.839l-10.159,5.715Z" transform="translate(1131.671 818.874)"/><path class="c" d="M468.179,91.17l13.565-7.638V98.807Z" transform="translate(1092.1 817.544)"/><path class="c" d="M438.263,82.254l20.945,11.791-20.945,11.79Z" transform="translate(1022.318 814.669)"/><path class="c" d="M420.109,95.589l24.913-14.022V109.61Z" transform="translate(979.969 813.124)"/><path class="c" d="M391.514,80.609l30.439,17.135-30.439,17.134Z" transform="translate(913.267 810.969)"/><path class="c" d="M372.795,98.538l32.468-18.281v36.563Z" transform="translate(869.602 810.176)"/><path class="c" d="M345.307,79.909l34.477,19.409-34.477,19.409Z" transform="translate(805.483 809.395)"/><path class="c" d="M326.474,99.55l35.072-19.744v39.487Z" transform="translate(761.552 809.163)"/><path class="c" d="M322.285,92.917l35.706,20.1-35.706,20.1Z" transform="translate(751.781 838.659)"/><path class="c" d="M303.392,139.569l35.977-20.254v40.5Z" transform="translate(707.71 898.048)"/><path class="c" d="M299.347,132.519l36.074,20.311-36.074,20.3Z" transform="translate(698.274 927.753)"/><path class="c" d="M280.268,179.669l37.095-20.885v41.768Z" transform="translate(653.768 986.845)"/><path class="c" d="M276.285,171.9l37.7,21.225-37.7,21.224Z" transform="translate(644.477 1016.354)"/><path class="c" d="M257.067,219.918l38.594-21.729v43.457Z" transform="translate(599.65 1075.493)"/><path class="c" d="M253.239,211.317l39.144,22.031-39.144,22.043Z" transform="translate(590.721 1105.029)"/><path class="c" d="M258.341,243.884l32.229-18.149v36.292Z" transform="translate(602.622 1137.465)"/><path class="c" d="M278.361,254.828l16.932,9.535L278.361,273.9Z" transform="translate(649.322 1202.917)"/><path class="c" d="M285.662,274.937l10.126-5.709v11.406Z" transform="translate(666.353 1235.314)"/><path class="c" d="M302.888,297.309l.678.385-.678.377Z" transform="translate(706.534 1298.49)"/><path class="c" d="M508.934,125.33l1.241.706-1.241.693Z" transform="translate(1187.168 911.581)"/><path class="c" d="M492.426,101.769l6.831-3.851v7.7Z" transform="translate(1148.661 849.91)"/><path class="c" d="M491.728,76.677l10.32-5.8V82.487Z" transform="translate(1147.032 789.065)"/><path class="c" d="M461.547,69.7l17.106,9.623L461.547,88.95Z" transform="translate(1076.63 786.421)"/><path class="c" d="M443.9,80.634l20.473-11.52V92.166Z" transform="translate(1035.458 785.108)"/><path class="c" d="M414.706,67.894l27.511,15.483-27.511,15.49Z" transform="translate(967.367 782.364)"/><path class="c" d="M396.125,84.473l30.322-17.065v34.137Z" transform="translate(924.024 781.269)"/><path class="c" d="M368.313,66.869l33.431,18.817-33.431,18.824Z" transform="translate(859.149 780.056)"/><path class="c" d="M349.585,85.913,383.6,66.768v38.3Z" transform="translate(815.462 779.829)"/><path class="c" d="M322.39,66.655l34.653,19.51-34.653,19.51Z" transform="translate(752.026 779.576)"/><path class="c" d="M303.293,113.317l36.475-20.532v41.063Z" transform="translate(707.479 838.362)"/><path class="c" d="M299.219,105.853l37.36,21.029-37.36,21.029Z" transform="translate(697.976 867.762)"/><path class="c" d="M279.8,154.143l39.448-22.208v44.415Z" transform="translate(652.673 926.44)"/><path class="c" d="M275.953,144.885l41.012,23.09-41.012,23.089Z" transform="translate(643.704 955.573)"/><path class="c" d="M256.125,195.311l43.306-24.382v48.763Z" transform="translate(597.452 1014.168)"/><path class="c" d="M252.751,184.027l44.036,24.785L252.751,233.6Z" transform="translate(589.581 1043.633)"/><path class="c" d="M232.8,235.8l45.438-25.573v51.158Z" transform="translate(543.04 1102.577)"/><path class="c" d="M254.044,239.152l31.1,17.513-31.1,17.512Z" transform="translate(592.598 1167.65)"/><path class="c" d="M260.155,266.793l23.168-13.045v26.09Z" transform="translate(606.852 1200.487)"/><path class="c" d="M279.156,282.647l8.989,5.067-8.989,5.06Z" transform="translate(651.176 1265.504)"/><path class="c" d="M286.894,298.981l3.975-2.244v4.475Z" transform="translate(669.225 1297.202)"/><path class="c" d="M516.279,113.132l2.068-1.166V114.3Z" transform="translate(1204.303 881.513)"/><path class="c" d="M508.606,98.318l4.53,2.552-4.53,2.552Z" transform="translate(1186.404 850.809)"/><path class="c" d="M484.786,57.06l13.733,7.726-13.733,7.738Z" transform="translate(1130.839 757.99)"/><path class="c" d="M467.461,66.117l17.145-9.648v19.3Z" transform="translate(1090.427 756.659)"/><path class="c" d="M437.991,55.34l23.66,13.316-23.66,13.321Z" transform="translate(1021.684 754.12)"/><path class="c" d="M419.693,69.952l26.982-15.187V85.139Z" transform="translate(979.001 752.824)"/><path class="c" d="M391.467,54.086l30.9,17.393-30.9,17.406Z" transform="translate(913.159 751.297)"/><path class="c" d="M372.843,72l32.229-18.143V90.147Z" transform="translate(869.716 750.778)"/><path class="c" d="M345.515,53.826l32.4,18.238L345.515,90.3Z" transform="translate(805.968 750.713)"/><path class="c" d="M327.058,71.967l32.151-18.1v36.2Z" transform="translate(762.913 750.809)"/><path class="c" d="M303.745,85.991l34.213-19.259v38.523Z" transform="translate(708.533 779.75)"/><path class="c" d="M299.374,79.679l35.809,20.16L299.374,120Z" transform="translate(698.337 808.876)"/><path class="c" d="M279.917,127.467l38.853-21.874v43.747Z" transform="translate(652.949 867.178)"/><path class="c" d="M276,118.516l40.585,22.851L276,164.21Z" transform="translate(643.803 896.25)"/><path class="c" d="M255.712,169.676l45.374-25.548v51.1Z" transform="translate(596.488 953.872)"/><path class="c" d="M252.429,157.026l47.255,26.6-47.255,26.6Z" transform="translate(588.83 982.888)"/><path class="c" d="M232.035,210.854l49.258-27.734v55.475Z" transform="translate(541.257 1041.591)"/><path class="c" d="M229.186,196.1,279.86,224.62l-50.674,28.528Z" transform="translate(534.612 1070.791)"/><path class="c" d="M229.735,223.491l45.186,25.441-45.186,25.44Z" transform="translate(535.893 1132.417)"/><path class="c" d="M234.385,259.16l37.509-21.118v42.234Z" transform="translate(546.74 1165.154)"/><path class="c" d="M255.043,267.324l21.12,11.9-21.12,11.885Z" transform="translate(594.928 1231.03)"/><path class="c" d="M262.045,289.555l13.714-7.726v15.44Z" transform="translate(611.262 1263.663)"/><path class="c" d="M279.7,310.024l3.593,2.029-3.593,2.022Z" transform="translate(652.434 1327.095)"/><path class="c" d="M287.687,323.874l.007-.007v.012Z" transform="translate(671.075 1358.24)"/><path class="c" d="M531.892,112.208l.679.378-.679.385Z" transform="translate(1240.721 882.059)"/><path class="c" d="M515.678,87.858,520.745,85v5.71Z" transform="translate(1202.901 820.855)"/><path class="c" d="M508.282,71.313l7.768,4.373-7.768,4.386Z" transform="translate(1185.649 790.055)"/><path class="c" d="M507.984,44.353l10.754,6.056-10.754,6.062Z" transform="translate(1184.952 729.401)"/><path class="c" d="M491.092,51.477l13.5-7.6v15.2Z" transform="translate(1145.549 728.333)"/><path class="c" d="M461.3,42.825l19.582,11.022L461.3,64.875Z" transform="translate(1076.055 725.964)"/><path class="c" d="M443.52,54.924l22.355-12.578V67.515Z" transform="translate(1034.58 724.886)"/><path class="c" d="M414.718,41.471l27.4,15.421-27.4,15.427Z" transform="translate(967.394 722.918)"/><path class="c" d="M396.414,57.472l28.881-16.258V73.73Z" transform="translate(924.698 722.339)"/><path class="c" d="M368.666,41.037l29.9,16.832-29.9,16.839Z" transform="translate(859.972 721.941)"/><path class="c" d="M350.481,57.725,380.021,41.1V74.355Z" transform="translate(817.552 722.085)"/><path class="c" d="M323,41.279l28.507,16.044L323,73.374Z" transform="translate(753.459 722.487)"/><path class="c" d="M305.091,56.922l27.486-15.465V72.4Z" transform="translate(711.672 722.888)"/><path class="c" d="M299.863,54.082l30.924,17.406L299.863,88.906Z" transform="translate(699.477 751.289)"/><path class="c" d="M280.431,100.022,316.712,79.6v40.848Z" transform="translate(654.148 808.692)"/><path class="c" d="M276.242,92.5l38.129,21.47-38.129,21.47Z" transform="translate(644.378 837.712)"/><path class="c" d="M256.187,142.309l43-24.212v48.416Z" transform="translate(597.596 895.308)"/><path class="c" d="M252.557,130.8l45.974,25.889-45.974,25.874Z" transform="translate(589.129 923.892)"/><path class="c" d="M231.618,185.223l51.339-28.907v57.813Z" transform="translate(540.285 981.291)"/><path class="c" d="M228.918,169.19l53.355,30.035-53.355,30.04Z" transform="translate(533.989 1010.255)"/><path class="c" d="M208,226.287l54.944-30.93v61.858Z" transform="translate(485.186 1069.124)"/><path class="c" d="M205.815,208.505l55.371,31.169-55.371,31.181Z" transform="translate(480.096 1098.703)"/><path class="c" d="M208.817,251.139l50.841-28.63v57.252Z" transform="translate(487.099 1130.209)"/><path class="c" d="M230.672,251.555,266.5,271.727,230.672,291.9Z" transform="translate(538.077 1195.553)"/><path class="c" d="M236.485,281.512l27.007-15.206v30.406Z" transform="translate(551.639 1228.74)"/><path class="c" d="M255.939,295.322l12.156,6.844-12.156,6.843Z" transform="translate(597.017 1294.018)"/><path class="c" d="M263.379,313.4l7.044-3.971v7.934Z" transform="translate(614.374 1325.752)"/><path class="c" d="M539.315,99.64l1.39-.775v1.557Z" transform="translate(1258.036 852.039)"/><path class="c" d="M531.642,85.331l3.179,1.79-3.179,1.789Z" transform="translate(1240.138 821.593)"/><path class="c" d="M515.013,62.71l8.395-4.726v9.453Z" transform="translate(1201.349 760.066)"/><path class="c" d="M514.587,37.1l10.528-5.924V43.02Z" transform="translate(1200.354 699.748)"/><path class="c" d="M484.613,30.317l15.458,8.7-15.458,8.709Z" transform="translate(1130.436 697.825)"/><path class="c" d="M467.267,40.058l18.121-10.2V50.267Z" transform="translate(1089.974 696.786)"/><path class="c" d="M438.094,29.074l22.638,12.742L438.094,54.559Z" transform="translate(1021.924 695.028)"/><path class="c" d="M420.194,42.532l24.48-13.776V56.314Z" transform="translate(980.169 694.313)"/><path class="c" d="M391.965,28.508,417.874,43.09,391.965,57.679Z" transform="translate(914.321 693.754)"/><path class="c" d="M374.01,43.282,400.4,28.423V58.142Z" transform="translate(872.439 693.562)"/><path class="c" d="M346.248,28.651l25.081,14.116L346.248,56.89Z" transform="translate(807.677 694.077)"/><path class="c" d="M328.555,42.611l24.668-13.889V56.5Z" transform="translate(766.405 694.234)"/><path class="c" d="M300.693,29.074l22.632,12.742L300.693,54.559Z" transform="translate(701.413 695.028)"/><path class="c" d="M281.648,71.2l30.193-16.99V88.2Z" transform="translate(656.989 751.577)"/><path class="c" d="M276.661,66.779,310.6,85.886l-33.941,19.12Z" transform="translate(645.355 779.855)"/><path class="c" d="M257.005,114.268l38.911-21.906v43.811Z" transform="translate(599.505 837.411)"/><path class="c" d="M252.981,105.093l41.736,23.5-41.736,23.5Z" transform="translate(590.119 866.052)"/><path class="c" d="M232.18,157.686l48.527-27.325v54.649Z" transform="translate(541.597 922.897)"/><path class="c" d="M229.064,143l51.895,29.222-51.895,29.215Z" transform="translate(534.327 951.328)"/><path class="c" d="M207.638,200.542,264.373,168.6V232.48Z" transform="translate(484.349 1008.937)"/><path class="c" d="M205.619,181.721,262.962,214l-57.342,32.284Z" transform="translate(479.64 1038.446)"/><path class="c" d="M184.506,240.66l57.9-32.593v65.192Z" transform="translate(430.389 1097.717)"/><path class="c" d="M206.482,236.1l48.708,27.425-48.708,27.425Z" transform="translate(481.653 1160.788)"/><path class="c" d="M210.7,273.908l41.431-23.323v46.646Z" transform="translate(491.491 1193.372)"/><path class="c" d="M231.814,279.979l24.4,13.739-24.4,13.738Z" transform="translate(540.742 1259.5)"/><path class="c" d="M238.5,304.029l16.925-9.535v19.063Z" transform="translate(556.343 1292.155)"/><path class="c" d="M256.606,322.916l5.493,3.1-5.493,3.094Z" transform="translate(598.573 1356.098)"/><path class="c" d="M264.512,337.632l1.383-.781v1.563Z" transform="translate(617.016 1387.448)"/><path class="c" d="M554.793,98.985l.672.384-.672.384Z" transform="translate(1294.142 852.31)"/><path class="c" d="M538.83,74.142,542.643,72v4.3Z" transform="translate(1256.906 791.6)"/><path class="c" d="M531.349,58.381l6.107,3.434-6.107,3.441Z" transform="translate(1239.454 760.961)"/><path class="c" d="M507.863,17.7l11.95,6.724-11.95,6.724Z" transform="translate(1184.672 669.45)"/><path class="c" d="M491.01,25.192l13.9-7.827V33.019Z" transform="translate(1145.359 668.687)"/><path class="c" d="M461.446,16.633l18.121,10.209L461.446,37.05Z" transform="translate(1076.395 667.038)"/><path class="c" d="M444.049,27.452l19.705-11.091V38.543Z" transform="translate(1035.815 666.427)"/><path class="c" d="M415.239,15.93l22.18,12.491-22.18,12.49Z" transform="translate(968.611 665.458)"/><path class="c" d="M397.68,28.56l22.548-12.692V41.252Z" transform="translate(927.652 665.319)"/><path class="c" d="M369.436,15.927l22.206,12.5-22.206,12.5Z" transform="translate(861.768 665.45)"/><path class="c" d="M352.1,28.128,373.539,16.06V40.2Z" transform="translate(821.333 665.751)"/><path class="c" d="M323.858,16.314l19.97,11.243L323.858,38.8Z" transform="translate(755.45 666.322)"/><path class="c" d="M306.82,27.116,325.659,16.51V37.728Z" transform="translate(715.707 666.763)"/><path class="c" d="M283.258,41.629l22.154-12.471V54.106Z" transform="translate(660.743 695.216)"/><path class="c" d="M277.444,41.7l26.1,14.69-26.1,14.7Z" transform="translate(647.182 723.424)"/><path class="c" d="M258.037,85.812l33.754-19v38.006Z" transform="translate(601.911 779.93)"/><path class="c" d="M253.474,79.5l36.811,20.727-36.811,20.727Z" transform="translate(591.268 808.483)"/><path class="c" d="M233.309,129.038,276.2,104.9v48.291Z" transform="translate(544.229 865.607)"/><path class="c" d="M229.609,117.5l46.459,26.165-46.459,26.152Z" transform="translate(535.598 893.956)"/><path class="c" d="M208.253,172.9l53.665-30.211v60.422Z" transform="translate(485.783 950.643)"/><path class="c" d="M205.68,155.384l56.735,31.938L205.68,219.258Z" transform="translate(479.78 979.193)"/><path class="c" d="M184.273,214.671l59.055-33.248v66.5Z" transform="translate(429.846 1037.774)"/><path class="c" d="M182.5,194.57l59.488,33.488-59.488,33.5Z" transform="translate(425.721 1067.353)"/><path class="c" d="M182.842,221.6l56.108,31.591-56.108,31.584Z" transform="translate(426.508 1128.159)"/><path class="c" d="M185.772,264.64l51.571-29.033v58.065Z" transform="translate(433.343 1159.675)"/><path class="c" d="M207.6,264.477l37.554,21.148L207.6,306.762Z" transform="translate(484.258 1224.626)"/><path class="c" d="M213.087,295.7l29.5-16.606v33.2Z" transform="translate(497.059 1257.516)"/><path class="c" d="M232.706,307.965l15.485,8.722L232.706,325.4Z" transform="translate(542.822 1322.462)"/><path class="c" d="M240.065,327.421l9.112-5.13v10.26Z" transform="translate(559.989 1354.693)"/><path class="c" d="M257.155,350.31l.007.007-.007.012Z" transform="translate(599.854 1417.729)"/><path class="c" d="M562.246,86.366l1.241-.7v1.4Z" transform="translate(1311.526 822.347)"/><path class="c" d="M554.613,72.232l2.475,1.386-2.475,1.4Z" transform="translate(1293.722 792.123)"/><path class="c" d="M538.349,48.642l6.216-3.5v7.008Z" transform="translate(1255.784 731.168)"/><path class="c" d="M531.137,31.574l8.214,4.619-8.214,4.626Z" transform="translate(1238.961 700.652)"/><path class="c" d="M531.077,5.023l8.828,4.972-8.828,4.972Z" transform="translate(1238.821 640.919)"/><path class="c" d="M514.587,10.654,525.114,4.73V16.577Z" transform="translate(1200.354 640.26)"/><path class="c" d="M484.768,4.144l13.9,7.827-13.9,7.827Z" transform="translate(1130.798 638.942)"/><path class="c" d="M467.789,12.6,483.3,3.865V21.333Z" transform="translate(1091.191 638.314)"/><path class="c" d="M438.573,3.462l17.843,10.045L438.573,23.552Z" transform="translate(1023.041 637.406)"/><path class="c" d="M421.394,13.76,439.877,3.349V24.164Z" transform="translate(982.968 637.153)"/><path class="c" d="M392.694,3.326l18.632,10.486L392.694,24.3Z" transform="translate(916.022 637.101)"/><path class="c" d="M375.636,13.673l18.27-10.285V23.957Z" transform="translate(876.229 637.24)"/><path class="c" d="M347.051,3.6,364.1,13.2l-17.054,9.6Z" transform="translate(809.55 637.712)"/><path class="c" d="M330.24,12.887l16.247-9.15V22.031Z" transform="translate(770.336 638.026)"/><path class="c" d="M301.47,3.981l14.845,8.356L301.47,20.693Z" transform="translate(703.227 638.576)"/><path class="c" d="M284.71,12.355,299.6,3.974V20.736Z" transform="translate(664.132 638.558)"/><path class="c" d="M278.218,16.594l18.367,10.335L278.218,37.263Z" transform="translate(648.987 666.95)"/><path class="c" d="M259.641,56.246l25.733-14.488V70.74Z" transform="translate(605.653 723.564)"/><path class="c" d="M254.2,54.314l29.586,16.65L254.2,87.625Z" transform="translate(592.951 751.812)"/><path class="c" d="M234.455,100.371l37.16-20.929v41.851Z" transform="translate(546.903 808.343)"/><path class="c" d="M230.254,92.175l39.991,22.517-39.991,22.516Z" transform="translate(537.105 836.988)"/><path class="c" d="M209.558,143.923,256.7,117.38v53.08Z" transform="translate(488.827 893.694)"/><path class="c" d="M206.273,129.967l50.8,28.6-50.8,28.6Z" transform="translate(481.164 922.011)"/><path class="c" d="M184.616,187.566l57.343-32.291V219.85Z" transform="translate(430.646 978.948)"/><path class="c" d="M182.534,168.178l59.2,33.324-59.2,33.324Z" transform="translate(425.788 1007.977)"/><path class="c" d="M161.284,228.058l59.5-33.488v66.988Z" transform="translate(376.221 1067.353)"/><path class="c" d="M159.719,207.993l58.331,32.833L159.719,273.67Z" transform="translate(372.571 1097.551)"/><path class="c" d="M161.862,253.381l56.612-31.868v63.736Z" transform="translate(377.569 1127.967)"/><path class="c" d="M183.734,249.588l47.19,26.562-47.19,26.562Z" transform="translate(428.588 1191.13)"/><path class="c" d="M188.043,286.659l40.217-22.642V309.3Z" transform="translate(438.639 1223.592)"/><path class="c" d="M208.79,292.985l25.644,14.437L208.79,321.853Z" transform="translate(487.036 1288.761)"/><path class="c" d="M215.09,318.249l19.485-10.978v21.95Z" transform="translate(501.732 1320.9)"/><path class="c" d="M233.59,335.939l6.65,3.743-6.65,3.743Z" transform="translate(544.885 1385.397)"/><path class="c" d="M241.467,351.133l2.107-1.185v2.375Z" transform="translate(563.259 1416.913)"/><path class="c" d="M585.391,99.108l.014-.007v.013Z" transform="translate(1365.517 852.571)"/><path class="c" d="M577.693,85.764l.679.385-.679.384Z" transform="translate(1347.559 822.565)"/><path class="c" d="M561.879,60.633l3.07-1.727V62.36Z" transform="translate(1310.671 762.143)"/><path class="c" d="M554.4,45.425,558.977,48,554.4,50.58Z" transform="translate(1293.229 731.814)"/><path class="c" d="M538.062,22.758l7.651-4.311v8.621Z" transform="translate(1255.115 671.121)"/><path class="c" d="M538.029-3.623l7.819-4.4v8.8Z" transform="translate(1255.038 611.571)"/><path class="c" d="M508.007-8.491l10.521,5.924L508.007,3.356Z" transform="translate(1185.006 610.515)"/><path class="c" d="M491.458-2.122l11.665-6.567V4.444Z" transform="translate(1146.403 610.07)"/><path class="c" d="M461.857-9.1l14.018,7.89L461.857,6.683Z" transform="translate(1077.354 609.154)"/><path class="c" d="M445.034-.91l14.78-8.319V7.408Z" transform="translate(1038.113 608.857)"/><path class="c" d="M415.893-9.381,431.545-.565,415.893,8.244Z" transform="translate(970.135 608.513)"/><path class="c" d="M399.117-.674l15.368-8.659V7.978Z" transform="translate(931.003 608.622)"/><path class="c" d="M370.177-9.232,384.976-.9l-14.8,8.331Z" transform="translate(863.496 608.849)"/><path class="c" d="M353.566-1.163l14.115-7.953v15.9Z" transform="translate(824.748 609.111)"/><path class="c" d="M324.572-8.895,337.413-1.66,324.572,5.574Z" transform="translate(757.115 609.608)"/><path class="c" d="M308.18-1.974l12.046-6.781V4.806Z" transform="translate(718.878 609.922)"/><path class="c" d="M278.817-8.813l12.376,6.97-12.376,6.97Z" transform="translate(650.385 609.791)"/><path class="c" d="M261.13,26.9l18.289-10.3V37.2Z" transform="translate(609.127 666.977)"/><path class="c" d="M254.958,29.191l21.966,12.364L254.958,53.919Z" transform="translate(594.729 695.29)"/><path class="c" d="M236.033,70.846,265.3,54.367V87.331Z" transform="translate(550.585 751.93)"/><path class="c" d="M230.914,66.874l33.4,18.8-33.4,18.8Z" transform="translate(538.643 780.069)"/><path class="c" d="M211.1,114.482l39.454-22.214V136.7Z" transform="translate(492.414 837.198)"/><path class="c" d="M207.112,104.979,249.52,128.85l-42.408,23.878Z" transform="translate(483.122 865.795)"/><path class="c" d="M186.024,158.379l50.3-28.327V186.7Z" transform="translate(433.931 922.203)"/><path class="c" d="M183.055,142.639l53.976,30.387-53.976,30.387Z" transform="translate(427.005 950.522)"/><path class="c" d="M161.432,201.337,220.2,168.252v66.169Z" transform="translate(376.565 1008.143)"/><path class="c" d="M159.663,181.45l58.893,33.16-58.893,33.16Z" transform="translate(372.439 1037.835)"/><path class="c" d="M138.926,240.228l56.793-31.969V272.2Z" transform="translate(324.066 1098.149)"/><path class="c" d="M160.34,235.51l52.127,29.348L160.34,294.2Z" transform="translate(374.018 1159.457)"/><path class="c" d="M163.712,276.22l47.364-26.663v53.326Z" transform="translate(381.884 1191.059)"/><path class="c" d="M185.074,278.354l33.786,19.019-33.786,19.018Z" transform="translate(431.714 1255.845)"/><path class="c" d="M190.544,308.23l27.712-15.6v31.2Z" transform="translate(444.475 1287.954)"/><path class="c" d="M209.783,321.147,225.5,330l-15.717,8.848Z" transform="translate(489.352 1352.12)"/><path class="c" d="M217.111,340.747l9.384-5.281v10.568Z" transform="translate(506.445 1384.333)"/><path class="c" d="M234.21,363.46l.439.24-.439.251Z" transform="translate(546.333 1447.312)"/><path class="c" d="M585.145,73.139l1.241-.693v1.4Z" transform="translate(1364.943 792.603)"/><path class="c" d="M577.549,59.073l2.113,1.185-2.113,1.2Z" transform="translate(1347.225 762.518)"/><path class="c" d="M561.547,34.836l4.73-2.659V37.5Z" transform="translate(1309.898 702.008)"/><path class="c" d="M554.271,18.754l5.881,3.315-5.881,3.315Z" transform="translate(1292.926 671.81)"/><path class="c" d="M531.155-21.286l8.046,4.538-8.046,4.524Z" transform="translate(1239.002 581.73)"/><path class="c" d="M514.9-16.4l8.944-5.042v10.076Z" transform="translate(1201.092 581.381)"/><path class="c" d="M485.111-21.707,495.587-15.8,485.111-9.9Z" transform="translate(1131.598 580.784)"/><path class="c" d="M468.636-15.5l11.271-6.346V-9.157Z" transform="translate(1093.168 580.479)"/><path class="c" d="M439.132-22.015l12.259,6.907L439.132-8.214Z" transform="translate(1024.344 580.09)"/><path class="c" d="M422.616-15.065l12.376-6.97V-8.1Z" transform="translate(985.818 580.047)"/><path class="c" d="M393.337-22.006l12.208,6.875L393.337-8.261Z" transform="translate(917.519 580.112)"/><path class="c" d="M376.927-15.283l11.813-6.655v13.3Z" transform="translate(879.242 580.265)"/><path class="c" d="M347.656-21.8l11.012,6.2L347.656-9.4Z" transform="translate(810.961 580.579)"/><path class="c" d="M331.444-15.9l10.224-5.76v11.52Z" transform="translate(773.145 580.884)"/><path class="c" d="M302.008-21.534l9.48,5.344-9.48,5.331Z" transform="translate(704.48 581.172)"/><path class="c" d="M285.759-16.129l9.648-5.432V-10.7Z" transform="translate(666.579 581.111)"/><path class="c" d="M262.2-1.625,275.138-8.91V5.659Z" transform="translate(611.624 609.573)"/><path class="c" d="M255.617,3.886,271,12.551l-15.387,8.665Z" transform="translate(596.267 638.362)"/><path class="c" d="M237.519,41.511l21.844-12.3v24.6Z" transform="translate(554.049 695.333)"/><path class="c" d="M231.754,41.884l25.01,14.079-25.01,14.084Z" transform="translate(540.602 723.847)"/><path class="c" d="M212.538,85.223,244.78,67.074v36.31Z" transform="translate(495.779 780.518)"/><path class="c" d="M207.836,79.787l35.176,19.807-35.176,19.8Z" transform="translate(484.81 809.12)"/><path class="c" d="M187.872,128.331l41.069-23.121v46.243Z" transform="translate(438.241 866.314)"/><path class="c" d="M183.94,117.729l45.135,25.409-45.135,25.4Z" transform="translate(429.068 894.479)"/><path class="c" d="M162.609,172.6l52.877-29.77v59.539Z" transform="translate(379.31 950.949)"/><path class="c" d="M159.969,155.541l55.824,31.427-55.824,31.427Z" transform="translate(373.154 979.546)"/><path class="c" d="M138.864,213.912l57.1-32.151v64.3Z" transform="translate(323.921 1038.533)"/><path class="c" d="M136.973,195.036l56.793,31.976-56.793,31.975Z" transform="translate(319.511 1068.4)"/><path class="c" d="M137.341,222.118l53.11,29.9-53.11,29.9Z" transform="translate(320.37 1129.328)"/><path class="c" d="M140.174,264.243l50.55-28.459V292.7Z" transform="translate(326.979 1160.072)"/><path class="c" d="M161.476,263.922l40.759,22.951-40.759,22.939Z" transform="translate(376.669 1223.378)"/><path class="c" d="M166.346,297.539l34.2-19.259v38.51Z" transform="translate(388.027 1255.679)"/><path class="c" d="M186.177,306.7l22.761,12.818-22.761,12.811Z" transform="translate(434.288 1319.626)"/><path class="c" d="M192.747,330.379l16.692-9.4v18.8Z" transform="translate(449.613 1351.735)"/><path class="c" d="M210.766,349.292l5.881,3.315-5.881,3.314Z" transform="translate(491.645 1415.439)"/><path class="c" d="M218.565,364.354l2.114-1.185v2.375Z" transform="translate(509.838 1446.658)"/><path class="c" d="M584.9,47.18l2.475-1.393v2.792Z" transform="translate(1364.369 732.63)"/><path class="c" d="M577.412,32.392l3.483,1.96-3.483,1.966Z" transform="translate(1346.904 702.493)"/><path class="c" d="M561.394,8.7l5.493-3.1v6.195Z" transform="translate(1309.541 642.214)"/><path class="c" d="M554.233-7.755,560.5-4.225,554.233-.7Z" transform="translate(1292.835 612.173)"/><path class="c" d="M554.311-34.065l5.5,3.1-5.5,3.088Z" transform="translate(1293.016 552.981)"/><path class="c" d="M538.262-30.515l6.65-3.75v7.493Z" transform="translate(1255.58 552.531)"/><path class="c" d="M508.282-34.461l7.768,4.386L508.282-25.7Z" transform="translate(1185.649 552.091)"/><path class="c" d="M492.158-29.926l8.168-4.6v9.188Z" transform="translate(1148.037 551.943)"/><path class="c" d="M462.369-34.655l8.9,5.017-8.9,5.009Z" transform="translate(1078.548 551.654)"/><path class="c" d="M446.14-29.5l9.254-5.211V-24.3Z" transform="translate(1040.692 551.52)"/><path class="c" d="M416.533-34.715l9.248,5.211L416.533-24.3Z" transform="translate(971.628 551.52)"/><path class="c" d="M400.348-29.516l9.209-5.193v10.373Z" transform="translate(933.876 551.532)"/><path class="c" d="M370.776-34.639l8.809,4.966-8.809,4.953Z" transform="translate(864.893 551.689)"/><path class="c" d="M354.66-29.734l8.647-4.878v9.743Z" transform="translate(827.3 551.75)"/><path class="c" d="M325.087-34.443l7.684,4.329-7.684,4.323Z" transform="translate(758.317 552.13)"/><path class="c" d="M309.13-30.267l7.3-4.109v8.211Z" transform="translate(721.095 552.283)"/><path class="c" d="M279.244-34.519l8.117,4.575-8.117,4.569Z" transform="translate(651.38 551.96)"/><path class="c" d="M262.984-29.595l9.021-5.079v10.158Z" transform="translate(613.451 551.611)"/><path class="c" d="M256.014-21.864l11.394,6.416L256.014-9.04Z" transform="translate(597.194 580.43)"/><path class="c" d="M238.705,12.756,254.616,3.8V21.718Z" transform="translate(556.818 638.157)"/><path class="c" d="M232.4,16.566,250.912,26.99,232.4,37.413Z" transform="translate(542.117 666.889)"/><path class="c" d="M214.163,55.613l24.119-13.574V69.2Z" transform="translate(499.57 724.197)"/><path class="c" d="M208.652,54.76l27.014,15.2L208.652,85.173Z" transform="translate(486.714 752.815)"/><path class="c" d="M189.385,98.94l33.5-18.862V117.8Z" transform="translate(441.77 809.774)"/><path class="c" d="M184.847,92.853l36.068,20.311-36.068,20.31Z" transform="translate(431.185 838.515)"/><path class="c" d="M164.5,142.484l43.449-24.464v48.915Z" transform="translate(383.712 895.133)"/><path class="c" d="M160.8,130.537l47.513,26.751L160.8,184.033Z" transform="translate(375.095 923.294)"/><path class="c" d="M139.486,186.253l53.988-30.394v60.787Z" transform="translate(325.373 980.261)"/><path class="c" d="M137.107,168.83l55.442,31.207-55.442,31.206Z" transform="translate(319.823 1009.443)"/><path class="c" d="M116.5,226.078l54.4-30.627v61.26Z" transform="translate(271.762 1069.333)"/><path class="c" d="M114.525,209.044l52.262,29.417L114.525,267.89Z" transform="translate(267.148 1099.915)"/><path class="c" d="M117.3,250.973l50.421-28.39v56.78Z" transform="translate(273.621 1130.375)"/><path class="c" d="M138.261,250.154l43.919,24.722L138.261,299.6Z" transform="translate(322.514 1192.403)"/><path class="c" d="M142.47,286.214l39.073-22v43.993Z" transform="translate(332.335 1224.037)"/><path class="c" d="M162.77,292.6,190.6,308.278,162.77,323.944Z" transform="translate(379.686 1287.906)"/><path class="c" d="M168.682,319.427l22.522-12.68v25.358Z" transform="translate(393.478 1319.722)"/><path class="c" d="M187.345,335.171l11.083,6.239-11.083,6.239Z" transform="translate(437.011 1383.67)"/><path class="c" d="M194.764,352.887l6.611-3.718V356.6Z" transform="translate(454.318 1415.159)"/><path class="c" d="M211.352,376.755h.019l-.019.012Z" transform="translate(493.011 1477.222)"/><path class="c" d="M584.705,21.118l3.444-1.941v3.882Z" transform="translate(1363.916 672.761)"/><path class="c" d="M577.336,5.818l4.239,2.388-4.239,2.382Z" transform="translate(1346.727 642.707)"/><path class="c" d="M561.394-17.743l5.493-3.1v6.2Z" transform="translate(1309.541 582.725)"/><path class="c" d="M561.623-44.637l4.349-2.452v4.9Z" transform="translate(1310.074 523.681)"/><path class="c" d="M531.409-47.286l5.5,3.094-5.5,3.094Z" transform="translate(1239.595 523.236)"/><path class="c" d="M515.525-44.061l5.836-3.283v6.566Z" transform="translate(1202.544 523.105)"/><path class="c" d="M485.575-47.345l5.836,3.283-5.836,3.283Z" transform="translate(1132.679 523.105)"/><path class="c" d="M469.679-43.974l6.062-3.409v6.824Z" transform="translate(1095.601 523.018)"/><path class="c" d="M439.741-47.4l6.178,3.479-6.178,3.485Z" transform="translate(1025.764 522.97)"/><path class="c" d="M423.863-43.943,430-47.4v6.913Z" transform="translate(988.727 522.988)"/><path class="c" d="M393.943-47.4l6.14,3.453-6.14,3.459Z" transform="translate(918.935 522.988)"/><path class="c" d="M378.139-44.1l5.752-3.233v6.472Z" transform="translate(882.069 523.14)"/><path class="c" d="M348.181-47.329l5.752,3.233-5.752,3.239Z" transform="translate(812.187 523.14)"/><path class="c" d="M332.416-44.244l5.364-3.019v6.037Z" transform="translate(775.412 523.289)"/><path class="c" d="M302.419-47.263l5.371,3.019-5.371,3.019Z" transform="translate(705.439 523.289)"/><path class="c" d="M286.506-44.035l5.913-3.321v6.648Z" transform="translate(668.32 523.079)"/><path class="c" d="M256.354-47.721l8.007,4.506L256.354-38.7Z" transform="translate(597.986 522.259)"/><path class="c" d="M239.5-15.23l11.943-6.731V-8.5Z" transform="translate(558.668 580.212)"/><path class="c" d="M232.824-9.147l14.3,8.054-14.3,8.053Z" transform="translate(543.098 609.04)"/><path class="c" d="M215.342,26.877l18.224-10.26V37.136Z" transform="translate(502.32 667.002)"/><path class="c" d="M209.312,29.456l20.428,11.5L209.312,52.464Z" transform="translate(488.252 695.888)"/><path class="c" d="M191.039,69.271l25.236-14.2V83.488Z" transform="translate(445.628 753.505)"/><path class="c" d="M185.623,67.755l28.313,15.937L185.623,99.635Z" transform="translate(432.994 782.05)"/><path class="c" d="M166.464,112.2,200.07,93.28v37.849Z" transform="translate(388.303 839.475)"/><path class="c" d="M161.856,105.919l36.966,20.815-36.966,20.815Z" transform="translate(377.555 867.911)"/><path class="c" d="M141.222,156.429l45.316-25.51v51.019Z" transform="translate(329.422 924.154)"/><path class="c" d="M137.743,143.485l49.089,27.64-49.089,27.639Z" transform="translate(321.307 952.424)"/><path class="c" d="M116.714,199.225l53.349-30.035v60.069Z" transform="translate(272.255 1010.255)"/><path class="c" d="M114.409,182.4l53.426,30.072-53.426,30.078Z" transform="translate(266.877 1039.973)"/><path class="c" d="M94.56,237.436,144.179,209.5v55.878Z" transform="translate(220.575 1100.941)"/><path class="c" d="M115.33,236.879l44.217,24.9-44.217,24.9Z" transform="translate(269.025 1162.537)"/><path class="c" d="M119.342,273.437l40.21-22.642v45.285Z" transform="translate(278.384 1193.843)"/><path class="c" d="M139.566,278.858l30.865,17.381-30.865,17.374Z" transform="translate(325.559 1256.979)"/><path class="c" d="M144.966,307.794l26.593-14.974v29.94Z" transform="translate(338.157 1288.39)"/><path class="c" d="M163.889,320.984l16.647,9.377-16.647,9.377Z" transform="translate(382.296 1351.753)"/><path class="c" d="M170.994,341.367l10.967-6.176v12.352Z" transform="translate(398.87 1383.713)"/><path class="c" d="M188.169,363.041l2.85,1.6-2.85,1.607Z" transform="translate(438.933 1446.37)"/><path class="c" d="M196.084,376.755h.013v.012Z" transform="translate(457.398 1477.222)"/><path class="c" d="M584.629-5.181l3.82-2.149v4.291Z" transform="translate(1363.74 613.128)"/><path class="c" d="M577.326-20.646l4.349,2.458-4.349,2.445Z" transform="translate(1346.705 583.17)"/><path class="c" d="M554.5-60.178l3.6,2.023-3.6,2.023Z" transform="translate(1293.459 494.234)"/><path class="c" d="M538.8-58.006l3.969-2.237v4.475Z" transform="translate(1256.833 494.085)"/><path class="c" d="M508.662-60.244l3.974,2.237-3.974,2.237Z" transform="translate(1186.536 494.085)"/><path class="c" d="M493.006-58.024l3.936-2.212v4.424Z" transform="translate(1150.013 494.103)"/><path class="c" d="M462.9-60.172l3.554,2-3.554,2Z" transform="translate(1079.792 494.246)"/><path class="c" d="M447.28-58.168l3.554-2v4.008Z" transform="translate(1043.351 494.246)"/><path class="c" d="M417.107-60.162l3.509,1.973-3.509,1.973Z" transform="translate(972.967 494.268)"/><path class="c" d="M401.489-58.19,405-60.162v3.945Z" transform="translate(936.535 494.268)"/><path class="c" d="M371.273-60.221l3.845,2.162L371.273-55.9Z" transform="translate(866.052 494.137)"/><path class="c" d="M355.612-58.041l3.891-2.187v4.374Z" transform="translate(829.521 494.12)"/><path class="c" d="M325.468-60.228l3.884,2.187-3.884,2.187Z" transform="translate(759.204 494.12)"/><path class="c" d="M309.789-58l4-2.249v4.5Z" transform="translate(722.632 494.077)"/><path class="c" d="M279.5-60.512l5.519,3.107L279.5-54.3Z" transform="translate(651.986 493.483)"/><path class="c" d="M263.453-56.951l6.676-3.762v7.524Z" transform="translate(614.546 493.029)"/><path class="c" d="M240.061-42.774l9.132-5.142v10.291Z" transform="translate(559.98 521.818)"/><path class="c" d="M233.179-34.977l10.76,6.063-10.76,6.05Z" transform="translate(543.926 550.93)"/><path class="c" d="M216.068-.979,230.66-9.2V7.231Z" transform="translate(504.012 608.927)"/><path class="c" d="M209.73,3.737l16.24,9.15-16.24,9.15Z" transform="translate(489.229 638.026)"/><path class="c" d="M192.259,40.455l19.135-10.776V51.231Z" transform="translate(448.474 696.389)"/><path class="c" d="M186.389,42.641l20.648,11.62L186.389,65.888Z" transform="translate(434.781 725.549)"/><path class="c" d="M168.068,82.627l25.591-14.4V97.033Z" transform="translate(392.044 783.114)"/><path class="c" d="M162.729,80.989l28.242,15.9-28.242,15.9Z" transform="translate(379.591 811.825)"/><path class="c" d="M143.492,125.556l33.967-19.113v38.233Z" transform="translate(334.719 869.089)"/><path class="c" d="M138.811,118.892l38.407,21.628-38.407,21.615Z" transform="translate(323.799 897.097)"/><path class="c" d="M118.031,170.217l46.763-26.329v52.658Z" transform="translate(275.326 953.331)"/><path class="c" d="M114.766,156.572l49.865,28.075-49.865,28.075Z" transform="translate(267.709 981.867)"/><path class="c" d="M94.207,211.683l51.384-28.932v57.87Z" transform="translate(219.752 1040.763)"/><path class="c" d="M91.841,196.2l50.1,28.207-50.1,28.207Z" transform="translate(214.233 1071.009)"/><path class="c" d="M92.436,223.669l44.146,24.861L92.436,273.384Z" transform="translate(215.622 1132.818)"/><path class="c" d="M96.39,260.312l40.468-22.781v45.561Z" transform="translate(224.845 1164.003)"/><path class="c" d="M116.515,265.377,148.879,283.6l-32.365,18.213Z" transform="translate(271.789 1226.65)"/><path class="c" d="M121.877,294.943l27.543-15.509v31.011Z" transform="translate(284.296 1258.275)"/><path class="c" d="M140.686,307.243l19.659,11.066-19.659,11.066Z" transform="translate(328.173 1320.839)"/><path class="c" d="M147.247,329.794l15.2-8.558v17.115Z" transform="translate(343.476 1352.32)"/><path class="c" d="M164.932,349.234l6.223,3.5-6.223,3.5Z" transform="translate(384.73 1415.308)"/><path class="c" d="M172.669,364.542l2.591-1.456V366Z" transform="translate(402.778 1446.47)"/><path class="c" d="M584.674-31.706l3.6-2.029v4.052Z" transform="translate(1363.844 553.722)"/><path class="c" d="M577.415-46.93l3.445,1.935-3.445,1.941Z" transform="translate(1346.913 524.039)"/><path class="c" d="M577.586-73.081l1.745.989-1.745.983Z" transform="translate(1347.311 465.205)"/><path class="c" d="M562.071-71.952l2.113-1.191v2.382Z" transform="translate(1311.119 465.065)"/><path class="c" d="M531.69-73.244l2.695,1.519-2.695,1.518Z" transform="translate(1240.251 464.838)"/><path class="c" d="M516.2-71.813l2.482-1.393v2.785Z" transform="translate(1204.109 464.926)"/><path class="c" d="M485.984-73.081l1.745.989-1.745.983Z" transform="translate(1133.634 465.205)"/><path class="c" d="M470.55-72.113l1.706-.958v1.916Z" transform="translate(1097.632 465.226)"/><path class="c" d="M440.192-73.066l1.661.939-1.661.939Z" transform="translate(1026.818 465.239)"/><path class="c" d="M424.759-72.126l1.667-.939v1.878Z" transform="translate(990.817 465.239)"/><path class="c" d="M394.355-73.128l2.029,1.141-2.029,1.14Z" transform="translate(919.894 465.1)"/><path class="c" d="M378.812-71.838l2.391-1.355v2.7Z" transform="translate(883.639 464.951)"/><path class="c" d="M348.468-73.275l2.876,1.62-2.876,1.62Z" transform="translate(812.857 464.768)"/><path class="c" d="M332.862-71.551,336-73.322v3.541Z" transform="translate(776.452 464.664)"/><path class="c" d="M302.568-73.45l3.884,2.187-3.884,2.187Z" transform="translate(705.787 464.376)"/><path class="c" d="M286.737-70.922l4.756-2.679v5.357Z" transform="translate(668.858 464.035)"/><path class="c" d="M256.476-73.954l6.8,3.826-6.8,3.825Z" transform="translate(598.27 463.241)"/><path class="c" d="M240.3-69.674l7.962-4.481v8.961Z" transform="translate(560.527 462.787)"/><path class="c" d="M233.353-61.118l9.016,5.079-9.016,5.079Z" transform="translate(544.333 492.118)"/><path class="c" d="M216.6-28.469l11.911-6.705v13.4Z" transform="translate(505.265 550.485)"/><path class="c" d="M210.016-22.209,223.4-14.672,210.016-7.135Z" transform="translate(489.894 579.654)"/><path class="c" d="M192.895,12.774l15.962-8.987V21.76Z" transform="translate(449.957 638.139)"/><path class="c" d="M186.823,16.95l16.3,9.176-16.3,9.176Z" transform="translate(435.794 667.753)"/><path class="c" d="M169.559,53.283,187.7,43.075V63.5Z" transform="translate(395.522 726.527)"/><path class="c" d="M163.547,55.965,183.6,67.251,163.547,78.544Z" transform="translate(381.5 755.525)"/><path class="c" d="M145.255,95.685l25.152-14.16v28.32Z" transform="translate(338.831 813.029)"/><path class="c" d="M139.9,94.337l27.518,15.49L139.9,125.317Z" transform="translate(326.341 841.853)"/><path class="c" d="M120.2,139.556l35.925-20.235v40.464Z" transform="translate(280.383 898.061)"/><path class="c" d="M115.7,131.741l40.559,22.838L115.7,177.411Z" transform="translate(269.88 926.003)"/><path class="c" d="M94.85,183.984l48.166-27.117v54.227Z" transform="translate(221.254 982.53)"/><path class="c" d="M91.864,169.8l49.865,28.068L91.864,225.932Z" transform="translate(214.287 1011.616)"/><path class="c" d="M71.844,223.853l48.7-27.413v54.832Z" transform="translate(167.587 1071.558)"/><path class="c" d="M69.348,210.126l46.02,25.9L69.348,261.94Z" transform="translate(161.766 1102.35)"/><path class="c" d="M73.176,247.7l42.033-23.663v47.327Z" transform="translate(170.695 1133.648)"/><path class="c" d="M93.6,252.125l32.533,18.32L93.6,288.763Z" transform="translate(218.331 1196.836)"/><path class="c" d="M98.833,282l28.255-15.905V297.9Z" transform="translate(230.544 1228.255)"/><path class="c" d="M117.705,293.881l20.474,11.526-20.474,11.519Z" transform="translate(274.566 1290.776)"/><path class="c" d="M124.023,317.2l16.809-9.465v18.93Z" transform="translate(289.304 1321.948)"/><path class="c" d="M141.78,335.583l8.718,4.9-8.718,4.909Z" transform="translate(330.725 1384.595)"/><path class="c" d="M149.188,352.455l5.494-3.094v6.194Z" transform="translate(348.004 1415.591)"/><path class="c" d="M165.552,376.755h.013l-.013.012Z" transform="translate(386.177 1477.222)"/><path class="c" d="M584.928-58.652l2.327-1.3v2.615Z" transform="translate(1364.436 494.731)"/><path class="c" d="M585.326-85.869l.336-.189v.384Z" transform="translate(1365.364 436.01)"/><path class="c" d="M554.726-86.233l1.344.757-1.344.763Z" transform="translate(1293.984 435.617)"/><path class="c" d="M539.315-85.463l1.39-.775v1.556Z" transform="translate(1258.036 435.604)"/><path class="c" d="M508.959-86.17l.989.554-.989.561Z" transform="translate(1187.227 435.757)"/><path class="c" d="M493.665-85.755l.639-.353v.719Z" transform="translate(1151.552 435.896)"/><path class="c" d="M463.228-86.05l.3.164-.3.176Z" transform="translate(1080.552 436.027)"/><path class="c" d="M447.932-85.886l.3-.164v.34Z" transform="translate(1044.871 436.027)"/><path class="c" d="M417.384-86.128l.743.416-.743.422Z" transform="translate(973.614 435.853)"/><path class="c" d="M401.979-85.59l1.053-.592v1.191Z" transform="translate(937.68 435.731)"/><path class="c" d="M371.476-86.314l1.809,1.021-1.809,1.027Z" transform="translate(866.527 435.434)"/><path class="c" d="M355.91-85.066l2.4-1.349v2.7Z" transform="translate(830.217 435.207)"/><path class="c" d="M325.541-86.543l3.141,1.764-3.141,1.77Z" transform="translate(759.376 434.919)"/><path class="c" d="M309.865-84.591l3.619-2.035v4.077Z" transform="translate(722.809 434.732)"/><path class="c" d="M279.54-86.888,284.685-84l-5.145,2.9Z" transform="translate(652.072 434.143)"/><path class="c" d="M263.529-83.548l6.3-3.542V-80Z" transform="translate(614.722 433.689)"/><path class="c" d="M233.435-87.419l8.195,4.613-8.195,4.619Z" transform="translate(544.523 432.947)"/><path class="c" d="M217-55.686l9.927-5.59V-50.1Z" transform="translate(506.192 491.764)"/><path class="c" d="M210.242-48.26,221.351-42l-11.109,6.257Z" transform="translate(490.423 521.047)"/><path class="c" d="M193.329-14.515l13.791-7.764V-6.757Z" transform="translate(450.97 579.497)"/><path class="c" d="M187-9.2,201.582-.979,187,7.231Z" transform="translate(436.197 608.927)"/><path class="c" d="M170.319,25.358l14.335-8.066V33.424Z" transform="translate(397.295 668.521)"/><path class="c" d="M164.09,30.463l14.625,8.23-14.625,8.23Z" transform="translate(382.766 698.152)"/><path class="c" d="M146.892,66.052l16.97-9.554V75.611Z" transform="translate(342.648 756.724)"/><path class="c" d="M140.731,69.331,159.95,80.145,140.731,90.971Z" transform="translate(328.277 785.596)"/><path class="c" d="M122.5,108.623l24.428-13.751v27.5Z" transform="translate(285.748 843.057)"/><path class="c" d="M116.926,107.428l28.267,15.912-28.267,15.912Z" transform="translate(272.748 871.305)"/><path class="c" d="M96.735,153.873l38.743-21.817v43.633Z" transform="translate(225.65 926.71)"/><path class="c" d="M92.529,144.5l43.216,24.331L92.529,193.159Z" transform="translate(215.839 954.714)"/><path class="c" d="M71.833,197.436l48.754-27.451v54.9Z" transform="translate(167.561 1012.043)"/><path class="c" d="M69.064,183.187,117.94,210.7l-48.876,27.52Z" transform="translate(161.101 1041.744)"/><path class="c" d="M49.588,235.817l45.47-25.6v51.2Z" transform="translate(115.673 1102.559)"/><path class="c" d="M70.417,238.419l35.344,19.895L70.417,278.208Z" transform="translate(164.259 1166.001)"/><path class="c" d="M75.651,269.323l29.67-16.7v33.405Z" transform="translate(176.467 1197.957)"/><path class="c" d="M94.833,280.708l20.189,11.369L94.833,303.439Z" transform="translate(221.213 1261.141)"/><path class="c" d="M101.122,303.98l16.815-9.466v18.931Z" transform="translate(235.882 1292.203)"/><path class="c" d="M118.723,322.086l10.295,5.8-10.295,5.8Z" transform="translate(276.941 1354.231)"/><path class="c" d="M126.032,339.726l6.773-3.806v7.619Z" transform="translate(293.99 1385.354)"/><path class="c" d="M142.478,363.231l1.745.983-1.745.983Z" transform="translate(332.353 1446.797)"/><path class="c" d="M562.49-99.221h.019v.013Z" transform="translate(1312.096 406.396)"/><path class="c" d="M531.93-99.272l.291.164-.291.171Z" transform="translate(1240.812 406.283)"/><path class="c" d="M394.486-99.341l.7.39-.7.4Z" transform="translate(920.201 406.126)"/><path class="c" d="M379.029-98.715l1.306-.731v1.469Z" transform="translate(884.146 405.89)"/><path class="c" d="M348.517-99.636l2.4,1.349-2.4,1.355Z" transform="translate(812.97 405.462)"/><path class="c" d="M332.914-98.1l2.875-1.613v3.239Z" transform="translate(776.574 405.279)"/><path class="c" d="M302.558-99.906l3.962,2.224-3.962,2.231Z" transform="translate(705.764 404.856)"/><path class="c" d="M286.737-97.371l4.756-2.672v5.357Z" transform="translate(668.858 404.546)"/><path class="c" d="M256.513-100.33l6.411,3.6-6.411,3.617Z" transform="translate(598.357 403.901)"/><path class="c" d="M240.451-96.425l7.186-4.039v8.086Z" transform="translate(560.889 403.6)"/><path class="c" d="M217.159-82.44l9.138-5.142v10.291Z" transform="translate(506.558 432.581)"/><path class="c" d="M210.363-74.5l9.92,5.59-9.92,5.59Z" transform="translate(490.704 462.02)"/><path class="c" d="M193.705-41.7l11.91-6.7v13.4Z" transform="translate(451.848 520.741)"/><path class="c" d="M187.166-35.341l12.867,7.247-12.867,7.24Z" transform="translate(436.595 550.11)"/><path class="c" d="M170.579-1.59l13.035-7.335V5.745Z" transform="translate(397.901 609.538)"/><path class="c" d="M164.3,4.375l12.57,7.077L164.3,18.523Z" transform="translate(383.246 639.461)"/><path class="c" d="M147.914,37.62l11.866-6.68V44.3Z" transform="translate(345.032 699.225)"/><path class="c" d="M141.433,44.107l12.194,6.856-12.194,6.869Z" transform="translate(329.915 728.847)"/><path class="c" d="M124.206,78.854l15.9-8.949v17.9Z" transform="translate(289.729 786.888)"/><path class="c" d="M117.89,82.655l18.619,10.486-18.619,10.48Z" transform="translate(274.996 815.572)"/><path class="c" d="M99.341,122.345l25.714-14.475v28.95Z" transform="translate(231.73 872.299)"/><path class="c" d="M93.7,120.095l31.473,17.721L93.7,155.536Z" transform="translate(218.58 899.802)"/><path class="c" d="M73.171,168.385,115.242,144.7v47.365Z" transform="translate(170.682 955.163)"/><path class="c" d="M69.379,157.292l45.71,25.737-45.71,25.73Z" transform="translate(161.838 983.486)"/><path class="c" d="M48.958,210.6,97.582,183.23v54.75Z" transform="translate(114.203 1041.84)"/><path class="c" d="M46.232,196.529l48.191,27.123L46.232,250.787Z" transform="translate(107.842 1071.759)"/><path class="c" d="M47.036,224.364l40.139,22.6-40.139,22.6Z" transform="translate(109.72 1134.38)"/><path class="c" d="M51.892,257.777l33.96-19.12V276.9Z" transform="translate(121.047 1166.537)"/><path class="c" d="M71.687,267.06l22.645,12.754L71.687,292.557Z" transform="translate(167.221 1230.437)"/><path class="c" d="M78.059,291.078l17.623-9.926V301Z" transform="translate(182.085 1262.14)"/><path class="c" d="M95.783,308.8l10.689,6.019-10.689,6.012Z" transform="translate(223.429 1324.333)"/><path class="c" d="M102.976,326.81l7.548-4.247v8.495Z" transform="translate(240.207 1355.304)"/><path class="c" d="M119.5,349.884l2.482,1.393-2.482,1.4Z" transform="translate(278.764 1416.769)"/><path class="c" d="M127.252,363.8l.672-.378v.762Z" transform="translate(296.835 1447.216)"/><path class="c" d="M402.138-112.346l.258-.139v.29Z" transform="translate(938.051 376.556)"/><path class="c" d="M371.527-112.667l1.3.731-1.3.738Z" transform="translate(866.644 376.146)"/><path class="c" d="M356.035-111.753l1.771-1v2Z" transform="translate(830.507 375.962)"/><path class="c" d="M325.568-112.939l2.876,1.613-2.876,1.62Z" transform="translate(759.439 375.535)"/><path class="c" d="M309.918-111.133l3.354-1.891v3.781Z" transform="translate(722.931 375.343)"/><path class="c" d="M279.579-113.265l4.763,2.672-4.763,2.685Z" transform="translate(652.163 374.802)"/><path class="c" d="M263.661-110.244l5.641-3.176v6.352Z" transform="translate(615.03 374.453)"/><path class="c" d="M233.547-113.666l7.071,3.976-7.071,3.983Z" transform="translate(544.786 373.899)"/><path class="c" d="M217.474-109.493l7.574-4.26v8.526Z" transform="translate(507.291 373.703)"/><path class="c" d="M210.479-100.734l8.75,4.915-8.75,4.928Z" transform="translate(490.975 402.993)"/><path class="c" d="M193.944-68.6l10.715-6.038v12.069Z" transform="translate(452.404 461.71)"/><path class="c" d="M187.3-61.549l11.509,6.478L187.3-48.592Z" transform="translate(436.912 491.149)"/><path class="c" d="M170.773-28.4l12.072-6.8v13.593Z" transform="translate(398.354 550.42)"/><path class="c" d="M164.381-21.922l11.723,6.6L164.381-8.726Z" transform="translate(383.445 580.299)"/><path class="c" d="M148.274,10.475l10.062-5.665V16.14Z" transform="translate(345.873 640.439)"/><path class="c" d="M141.732,18.18l9.209,5.181-9.209,5.18Z" transform="translate(330.612 670.519)"/><path class="c" d="M125.516,49.855l9.345-5.256V55.123Z" transform="translate(292.787 729.955)"/><path class="c" d="M118.694,57.607l10.579,5.949-10.579,5.961Z" transform="translate(276.873 759.22)"/><path class="c" d="M101.352,91.985l15.666-8.816V100.8Z" transform="translate(236.421 816.728)"/><path class="c" d="M94.944,95.8l19.077,10.738L94.944,117.275Z" transform="translate(221.471 845.142)"/><path class="c" d="M75.589,137.231l29.973-16.877v33.753Z" transform="translate(176.323 900.386)"/><path class="c" d="M70.336,132.505,106.48,152.86,70.336,173.2Z" transform="translate(164.069 927.722)"/><path class="c" d="M49.617,182.88l45.328-25.523V208.4Z" transform="translate(115.74 983.634)"/><path class="c" d="M46.226,170.075l48.243,27.161L46.226,224.4Z" transform="translate(107.829 1012.244)"/><path class="c" d="M25.915,224.106l49.341-27.779v55.557Z" transform="translate(60.451 1071.305)"/><path class="c" d="M23.454,209.963l46.963,26.43L23.454,262.835Z" transform="translate(54.711 1101.983)"/><path class="c" d="M27.61,247.248,68.473,224.24v46.009Z" transform="translate(64.404 1134.101)"/><path class="c" d="M48.357,253.1l26.936,15.162L48.357,283.42Z" transform="translate(112.8 1199.022)"/><path class="c" d="M54.473,279.195l21.055-11.859v23.707Z" transform="translate(127.067 1231.057)"/><path class="c" d="M72.763,295.368l11.879,6.693-11.879,6.686Z" transform="translate(169.732 1294.122)"/><path class="c" d="M79.919,313.895l8.33-4.689v9.377Z" transform="translate(186.423 1325.254)"/><path class="c" d="M96.594,336.641l2.591,1.462-2.591,1.462Z" transform="translate(225.32 1386.977)"/><path class="c" d="M104.281,350.714l1.028-.58v1.16Z" transform="translate(243.251 1417.332)"/><path class="c" d="M394.521-125.726l.362.2-.362.2Z" transform="translate(920.283 346.767)"/><path class="c" d="M379.149-125.393l.7-.391V-125Z" transform="translate(884.425 346.637)"/><path class="c" d="M348.579-125.97l1.778,1-1.778,1Z" transform="translate(813.114 346.218)"/><path class="c" d="M332.988-124.686,335.5-126.1v2.823Z" transform="translate(776.746 345.93)"/><path class="c" d="M302.593-126.292l3.626,2.042-3.626,2.042Z" transform="translate(705.846 345.494)"/><path class="c" d="M286.82-123.971l4.342-2.445v4.89Z" transform="translate(669.053 345.215)"/><path class="c" d="M256.6-126.621l5.519,3.113L256.6-120.4Z" transform="translate(598.569 344.752)"/><path class="c" d="M240.639-123.229l6.25-3.516v7.032Z" transform="translate(561.328 344.473)"/><path class="c" d="M210.613-126.947l7.413,4.172-7.413,4.172Z" transform="translate(491.287 344.019)"/><path class="c" d="M194.19-95.526l9.487-5.337v10.681Z" transform="translate(452.979 402.701)"/><path class="c" d="M187.422-87.788l10.321,5.811-10.321,5.817Z" transform="translate(437.192 432.118)"/><path class="c" d="M170.963-55.223l11.115-6.258v12.515Z" transform="translate(398.797 491.302)"/><path class="c" d="M164.465-48.217,175.347-42.1l-10.883,6.125Z" transform="translate(383.639 521.142)"/><path class="c" d="M148.338-16.094l9.739-5.482v10.965Z" transform="translate(346.023 581.076)"/><path class="c" d="M141.776-8.189l8.77,4.941-8.77,4.927Z" transform="translate(330.715 611.196)"/><path class="c" d="M126.073,22.331l6.566-3.693v7.385Z" transform="translate(294.085 671.548)"/><path class="c" d="M119.131,31.917l6.224,3.5-6.224,3.5Z" transform="translate(277.891 701.424)"/><path class="c" d="M102.933,62.457l7.761-4.361V66.83Z" transform="translate(240.107 760.319)"/><path class="c" d="M95.853,70.929l10,5.621-10,5.633Z" transform="translate(223.592 789.191)"/><path class="c" d="M78.224,105.651l16.8-9.459V115.11Z" transform="translate(182.47 846.028)"/><path class="c" d="M71.77,108.547l21.805,12.276L71.77,133.105Z" transform="translate(167.416 873.822)"/><path class="c" d="M51.623,152.529l35.3-19.876V172.4Z" transform="translate(120.418 928.054)"/><path class="c" d="M46.949,144.885l41.018,23.09L46.949,191.065Z" transform="translate(109.516 955.573)"/><path class="c" d="M25.9,197.685,75.3,169.875v55.619Z" transform="translate(60.424 1011.795)"/><path class="c" d="M23.07,182.854l50.8,28.6-50.8,28.6Z" transform="translate(53.815 1040.994)"/><path class="c" d="M3.174,237.013l48.534-27.325v54.649Z" transform="translate(7.405 1101.364)"/><path class="c" d="M24.7,238.554l34.549,19.454L24.7,277.462Z" transform="translate(57.606 1166.306)"/><path class="c" d="M30.4,268.258,57.332,253.1V283.42Z" transform="translate(70.904 1199.022)"/><path class="c" d="M49.606,281.7l14.444,8.136-14.444,8.129Z" transform="translate(115.713 1263.379)"/><path class="c" d="M56.626,301.442l10.295-5.8v11.589Z" transform="translate(132.088 1294.742)"/><path class="c" d="M73.555,323.182l3.975,2.237-3.975,2.237Z" transform="translate(171.577 1356.696)"/><path class="c" d="M81.309,337.632l1.383-.781v1.563Z" transform="translate(189.666 1387.448)"/><path class="c" d="M402.183-138.872l.039-.019v.037Z" transform="translate(938.155 317.15)"/><path class="c" d="M371.552-139.067l1.053.592-1.053.592Z" transform="translate(866.703 316.753)"/><path class="c" d="M356.108-138.335l1.409-.795v1.588Z" transform="translate(830.678 316.613)"/><path class="c" d="M325.605-139.319l2.508,1.412-2.508,1.411Z" transform="translate(759.526 316.185)"/><path class="c" d="M309.939-137.619l3.251-1.828v3.655Z" transform="translate(722.981 315.898)"/><path class="c" d="M279.618-139.643,284-137.179l-4.381,2.464Z" transform="translate(652.253 315.457)"/><path class="c" d="M263.769-136.9l5.092-2.874v5.747Z" transform="translate(615.283 315.174)"/><path class="c" d="M233.629-139.967l6.249,3.516-6.249,3.516Z" transform="translate(544.976 314.729)"/><path class="c" d="M217.652-136.285l6.682-3.756v7.511Z" transform="translate(507.708 314.563)"/><path class="c" d="M194.527-122.623l7.8-4.393v8.791Z" transform="translate(453.765 343.866)"/><path class="c" d="M187.583-113.949l8.7,4.9-8.7,4.9Z" transform="translate(437.567 373.262)"/><path class="c" d="M171.131-81.995l10.276-5.785v11.57Z" transform="translate(399.191 432.136)"/><path class="c" d="M164.521-74.565l10.321,5.811-10.321,5.81Z" transform="translate(383.77 461.867)"/><path class="c" d="M148.346-42.561l9.7-5.451V-37.1Z" transform="translate(346.041 521.605)"/><path class="c" d="M141.759-34.662l8.945,5.042-8.945,5.035Z" transform="translate(330.674 551.637)"/><path class="c" d="M126.046-4.055l6.7-3.775V-.287Z" transform="translate(294.021 612.003)"/><path class="c" d="M119.216,5.622l5.364,3.025-5.364,3.025Z" transform="translate(278.09 642.266)"/><path class="c" d="M103.765,34.4l3.6-2.023v4.052Z" transform="translate(242.047 702.449)"/><path class="c" d="M96.439,45.5l4.136,2.326-4.136,2.332Z" transform="translate(224.958 731.984)"/><path class="c" d="M80.024,75.7l7.807-4.386v8.784Z" transform="translate(186.668 790.046)"/><path class="c" d="M72.827,83.937l11.238,6.321L72.827,96.579Z" transform="translate(169.881 818.456)"/><path class="c" d="M54.57,120.343,75.141,108.76v23.172Z" transform="translate(127.293 874.302)"/><path class="c" d="M48.262,120.715l27.886,15.7-27.886,15.7Z" transform="translate(112.579 901.198)"/><path class="c" d="M27.461,168.211l41.613-23.43v46.854Z" transform="translate(64.056 955.338)"/><path class="c" d="M23.46,157.088l46.893,26.4-46.893,26.4Z" transform="translate(54.724 983.028)"/><path class="c" d="M2.406,212.067,54.786,182.58v58.979Z" transform="translate(5.614 1040.379)"/><path class="c" d="M0,195.78l52.5,29.556L0,254.892Z" transform="translate(0 1070.075)"/><path class="c" d="M.851,223.7l43.984,24.766L.851,273.224Z" transform="translate(1.986 1132.884)"/><path class="c" d="M5.713,258.515l35.848-20.185V278.7Z" transform="translate(13.326 1165.8)"/><path class="c" d="M26.126,267.479,46.36,278.872,26.126,290.26Z" transform="translate(60.944 1231.379)"/><path class="c" d="M32.975,289.681l14.036-7.909v15.811Z" transform="translate(76.921 1263.536)"/><path class="c" d="M50.486,309.667l5.655,3.189-5.655,3.182Z" transform="translate(117.767 1326.293)"/><path class="c" d="M58.115,324.978l2.849-1.6v3.2Z" transform="translate(135.562 1357.136)"/><path class="c" d="M394.521-152.168l.362.2-.362.2Z" transform="translate(920.283 287.279)"/><path class="c" d="M379.149-151.831l.7-.4v.787Z" transform="translate(884.425 287.144)"/><path class="c" d="M348.579-152.414l1.778,1-1.778,1Z" transform="translate(813.114 286.725)"/><path class="c" d="M333.061-151.268l2.139-1.21v2.414Z" transform="translate(776.918 286.581)"/><path class="c" d="M302.63-152.668l3.251,1.828-3.251,1.827Z" transform="translate(705.932 286.153)"/><path class="c" d="M286.888-150.544l4-2.256v4.512Z" transform="translate(669.211 285.857)"/><path class="c" d="M256.641-153l5.145,2.9-5.145,2.892Z" transform="translate(598.655 285.412)"/><path class="c" d="M240.782-149.951l5.526-3.113v6.226Z" transform="translate(561.663 285.264)"/><path class="c" d="M210.714-153.217l6.411,3.611-6.411,3.611Z" transform="translate(491.523 284.919)"/><path class="c" d="M194.727-149.453l6.8-3.832v7.657Z" transform="translate(454.231 284.766)"/><path class="c" d="M187.709-140.176l7.451,4.2-7.451,4.2Z" transform="translate(437.862 314.257)"/><path class="c" d="M171.438-109.035l8.744-4.922v9.85Z" transform="translate(399.905 373.245)"/><path class="c" d="M164.6-100.871l9.532,5.363L164.6-90.139Z" transform="translate(383.956 402.683)"/><path class="c" d="M148.381-69.06l9.526-5.369V-63.7Z" transform="translate(346.122 462.173)"/><path class="c" d="M141.738-61.138,150.882-56l-9.144,5.142Z" transform="translate(330.625 492.074)"/><path class="c" d="M125.931-30.275l7.277-4.1v8.186Z" transform="translate(293.755 552.292)"/><path class="c" d="M119.137-20.956,125.3-17.49l-6.158,3.466Z" transform="translate(277.905 582.472)"/><path class="c" d="M103.815,7.862l3.354-1.891V9.752Z" transform="translate(242.165 643.052)"/><path class="c" d="M96.642,19.409l2.107,1.185-2.107,1.185Z" transform="translate(225.433 673.285)"/><path class="c" d="M81.146,47.071l2.2-1.235v2.477Z" transform="translate(189.287 732.739)"/><path class="c" d="M73.605,58.838l3.464,1.948-3.464,1.953Z" transform="translate(171.695 761.99)"/><path class="c" d="M56.756,89.643,66.4,84.21V95.068Z" transform="translate(132.391 819.071)"/><path class="c" d="M49.654,96.683l13.973,7.865-13.973,7.871Z" transform="translate(115.826 847.131)"/><path class="c" d="M30.255,136.323,57.9,120.758v31.118Z" transform="translate(70.574 901.294)"/><path class="c" d="M24.6,132.626l35.46,19.965L24.6,172.554Z" transform="translate(57.393 927.993)"/><path class="c" d="M3.3,183.884l47.907-26.972v53.944Z" transform="translate(7.699 982.63)"/><path class="c" d="M.025,169.381,52.268,198.8.025,228.214Z" transform="translate(0.059 1010.682)"/><path class="c" d="M2.362,252.759l28.882,16.259L2.362,285.276Z" transform="translate(5.509 1198.262)"/><path class="c" d="M8.674,279.195l21.049-11.859v23.707Z" transform="translate(20.233 1231.057)"/><path class="c" d="M27.236,295.841,36.386,301l-9.151,5.155Z" transform="translate(63.531 1295.187)"/><path class="c" d="M34.761,312.642l5.119-2.88v5.753Z" transform="translate(81.086 1326.507)"/><path class="c" d="M51.05,337.089l.013.006-.013.012Z" transform="translate(119.083 1387.984)"/><path class="c" d="M417.454-165.335l.038.025-.038.012Z" transform="translate(973.777 257.657)"/><path class="c" d="M402.119-165.188l.362-.2v.4Z" transform="translate(938.006 257.534)"/><path class="c" d="M371.548-165.517l1.092.617-1.092.618Z" transform="translate(866.694 257.247)"/><path class="c" d="M356.035-164.634l1.771-1v2Z" transform="translate(830.507 256.98)"/><path class="c" d="M325.605-165.762l2.508,1.412-2.508,1.411Z" transform="translate(759.526 256.697)"/><path class="c" d="M309.939-164.062l3.251-1.827v3.655Z" transform="translate(722.981 256.409)"/><path class="c" d="M279.643-166.041l4.117,2.319-4.117,2.313Z" transform="translate(652.312 256.069)"/><path class="c" d="M263.835-163.469l4.763-2.684v5.356Z" transform="translate(615.437 255.816)"/><path class="c" d="M233.691-166.3l5.642,3.176-5.642,3.176Z" transform="translate(545.12 255.475)"/><path class="c" d="M217.784-162.98l6.023-3.39v6.781Z" transform="translate(508.015 255.327)"/><path class="c" d="M187.773-166.506l6.8,3.832-6.8,3.826Z" transform="translate(438.011 255.021)"/><path class="c" d="M171.672-135.935l7.574-4.26v8.52Z" transform="translate(400.453 314.214)"/><path class="c" d="M164.734-127.083l8.195,4.613-8.195,4.613Z" transform="translate(384.268 343.714)"/><path class="c" d="M148.459-95.661,157.6-100.8v10.285Z" transform="translate(346.303 402.836)"/><path class="c" d="M141.738-87.582l9.144,5.142-9.144,5.149Z" transform="translate(330.625 432.581)"/><path class="c" d="M125.784-56.436l8.007-4.506v9.012Z" transform="translate(293.411 492.514)"/><path class="c" d="M119.026-47.593l7.27,4.09-7.27,4.1Z" transform="translate(277.647 522.547)"/><path class="c" d="M103.551-18.07l4.666-2.628v5.249Z" transform="translate(241.55 583.052)"/><path class="c" d="M96.534-7.223l3.193,1.8-3.193,1.8Z" transform="translate(225.18 613.368)"/><path class="c" d="M81.47,20l.575-.321v.643Z" transform="translate(190.042 673.883)"/><path class="c" d="M73.909,32.925l.414.227-.414.233Z" transform="translate(172.405 703.692)"/><path class="c" d="M58.258,60.267l2.133-1.2v2.395Z" transform="translate(135.896 762.509)"/><path class="c" d="M50.566,71.817l4.86,2.735-4.86,2.741Z" transform="translate(117.952 791.189)"/><path class="c" d="M33.117,104.3,46.45,96.794V111.8Z" transform="translate(77.251 847.38)"/><path class="c" d="M26.2,108.952l19.465,10.959L26.2,130.87Z" transform="translate(61.125 874.734)"/><path class="c" d="M5.672,152.826l36.055-20.3v40.6Z" transform="translate(13.231 927.757)"/><path class="c" d="M.9,144.447l43.538,24.514L.9,193.475Z" transform="translate(2.09 954.587)"/><path class="c" d="M3.766,281.635l14.844,8.357L3.766,298.347Z" transform="translate(8.785 1263.226)"/><path class="c" d="M10.983,301.136l9.5-5.357v10.7Z" transform="translate(25.621 1295.047)"/><path class="c" d="M27.961,323.54l1.9,1.072-1.9,1.071Z" transform="translate(65.223 1357.503)"/><path class="c" d="M425.084-178.531l.032-.025v.037Z" transform="translate(991.576 227.912)"/><path class="c" d="M394.486-178.67l.7.4-.7.391Z" transform="translate(920.201 227.655)"/><path class="c" d="M379.08-178.138l1.053-.592v1.185Z" transform="translate(884.263 227.52)"/><path class="c" d="M348.579-178.857l1.778,1-1.778,1Z" transform="translate(813.114 227.236)"/><path class="c" d="M332.988-177.571l2.508-1.412v2.818Z" transform="translate(776.746 226.952)"/><path class="c" d="M302.6-179.169l3.587,2.016-3.587,2.016Z" transform="translate(705.855 226.534)"/><path class="c" d="M286.888-176.987l4-2.256v4.505Z" transform="translate(669.211 226.368)"/><path class="c" d="M256.68-179.374l4.756,2.684-4.756,2.672Z" transform="translate(598.746 226.071)"/><path class="c" d="M240.837-176.5l5.254-2.962v5.917Z" transform="translate(561.789 225.879)"/><path class="c" d="M210.725-179.64l6.294,3.548-6.294,3.542Z" transform="translate(491.55 225.474)"/><path class="c" d="M194.75-175.944l6.682-3.762v7.518Z" transform="translate(454.286 225.325)"/><path class="c" d="M171.773-162.57l7.063-3.983v7.959Z" transform="translate(400.688 254.917)"/><path class="c" d="M164.808-153.4l7.458,4.2-7.458,4.2Z" transform="translate(384.44 284.513)"/><path class="c" d="M148.639-122.452l8.24-4.638v9.276Z" transform="translate(346.724 343.696)"/><path class="c" d="M141.794-113.928l8.589,4.827-8.589,4.84Z" transform="translate(330.756 373.31)"/><path class="c" d="M125.637-82.6l8.744-4.916v9.843Z" transform="translate(293.067 432.738)"/><path class="c" d="M118.952-74.163l8.007,4.506-8.007,4.505Z" transform="translate(277.475 462.77)"/><path class="c" d="M103.263-43.957l6.113-3.434v6.875Z" transform="translate(240.876 523.001)"/><path class="c" d="M96.386-33.922l4.666,2.634-4.666,2.621Z" transform="translate(224.836 553.304)"/><path class="c" d="M81.232-5.979l1.764-1v1.991Z" transform="translate(189.486 613.927)"/><path class="c" d="M73.888,6.444l.634.353-.634.353Z" transform="translate(172.355 644.116)"/><path class="c" d="M51.049,46.212l.026.013-.026.019Z" transform="translate(119.079 733.585)"/><path class="c" d="M34.932,74.317l4.258-2.395v4.8Z" transform="translate(81.485 791.425)"/><path class="c" d="M27.367,84.523l7.839,4.418-7.839,4.411Z" transform="translate(63.839 819.773)"/><path class="c" d="M8.967,119.955l19.582-11.022v22.05Z" transform="translate(20.916 874.69)"/><path class="c" d="M2.438,120.674l28.125,15.836L2.438,152.341Z" transform="translate(5.686 901.106)"/><path class="c" d="M4.7,309.695l5.5,3.1-5.5,3.094Z" transform="translate(10.965 1326.354)"/><path class="c" d="M12.463,324.69l2.107-1.185v2.37Z" transform="translate(29.072 1357.424)"/><path class="c" d="M417.452-191.781l.065.038-.065.037Z" transform="translate(973.772 198.159)"/><path class="c" d="M402.111-191.612l.4-.227v.448Z" transform="translate(937.987 198.028)"/><path class="c" d="M371.515-192.014l1.416.794-1.416.794Z" transform="translate(866.617 197.635)"/><path class="c" d="M356.035-191.071l1.771-1.009v2Z" transform="translate(830.507 197.487)"/><path class="c" d="M325.568-192.27l2.876,1.626-2.876,1.613Z" transform="translate(759.439 197.059)"/><path class="c" d="M309.939-190.5l3.251-1.828v3.655Z" transform="translate(722.981 196.92)"/><path class="c" d="M279.655-192.464l4,2.256-4,2.249Z" transform="translate(652.339 196.623)"/><path class="c" d="M263.835-189.911,268.6-192.6v5.356Z" transform="translate(615.437 196.327)"/><path class="c" d="M233.7-192.728l5.525,3.113-5.525,3.106Z" transform="translate(545.148 196.03)"/><path class="c" d="M217.805-189.466l5.913-3.327v6.654Z" transform="translate(508.065 195.882)"/><path class="c" d="M187.785-192.929l6.682,3.769-6.682,3.756Z" transform="translate(438.038 195.576)"/><path class="c" d="M171.773-189.012,178.836-193v7.959Z" transform="translate(400.688 195.428)"/><path class="c" d="M164.808-179.842l7.458,4.2-7.458,4.2Z" transform="translate(384.44 225.02)"/><path class="c" d="M148.716-149.047l7.846-4.418v8.829Z" transform="translate(346.904 284.36)"/><path class="c" d="M141.856-140.265l7.968,4.487-7.968,4.487Z" transform="translate(330.901 314.057)"/><path class="c" d="M125.716-109.188l8.35-4.7v9.4Z" transform="translate(293.252 373.397)"/><path class="c" d="M118.894-100.706l8.583,4.827-8.583,4.84Z" transform="translate(277.339 403.055)"/><path class="c" d="M102.995-69.867l7.452-4.2v8.407Z" transform="translate(240.252 462.98)"/><path class="c" d="M96.214-60.661l6.385,3.593-6.385,3.592Z" transform="translate(224.433 493.147)"/><path class="c" d="M80.826-31.628,84.62-33.77V-29.5Z" transform="translate(188.54 553.644)"/><path class="c" d="M73.717-20.3l2.346,1.323-2.346,1.317Z" transform="translate(171.957 583.956)"/><path class="c" d="M58.683,6.553h0Z" transform="translate(136.887 644.361)"/><path class="c" d="M28.077,59.314l.731.4-.731.415Z" transform="translate(65.494 763.059)"/><path class="c" d="M11.371,88.827l7.561-4.254v8.508Z" transform="translate(26.525 819.887)"/><path class="c" d="M3.973,96.891l12.764,7.191-12.764,7.19Z" transform="translate(9.269 847.598)"/><path class="c" d="M148.716-175.486l7.846-4.424v8.835Z" transform="translate(346.904 224.867)"/><path class="c" d="M141.867-166.687l7.846,4.418-7.846,4.412Z" transform="translate(330.928 254.616)"/><path class="c" d="M125.737-135.674l8.24-4.638v9.276Z" transform="translate(293.303 313.952)"/><path class="c" d="M118.917-127.11l8.356,4.7-8.356,4.7Z" transform="translate(277.394 343.653)"/><path class="c" d="M102.815-95.967l8.356-4.7v9.408Z" transform="translate(239.831 403.142)"/><path class="c" d="M96.068-87.357l7.845,4.412-7.845,4.424Z" transform="translate(224.094 433.087)"/><path class="c" d="M80.44-57.326l5.726-3.22v6.44Z" transform="translate(187.64 493.405)"/><path class="c" d="M73.5-47.116l4.511,2.54L73.5-42.036Z" transform="translate(171.451 523.62)"/><path class="c" d="M58.282-19.1,60.3-20.241v2.275Z" transform="translate(135.951 584.082)"/><path class="c" d="M50.963-6.82l.879.492-.879.491Z" transform="translate(118.88 614.276)"/><path class="c" d="M12.787,59.621l.485-.265V59.9Z" transform="translate(29.827 763.155)"/><path class="c" d="M4.9,72.054,8.4,74.02,4.9,75.993Z" transform="translate(11.431 791.721)"/><path class="c" d="M141.856-193.15l7.968,4.487-7.968,4.474Z" transform="translate(330.901 195.079)"/><path class="c" d="M125.737-162.116l8.24-4.638v9.276Z" transform="translate(293.303 254.463)"/><path class="c" d="M118.929-153.533l8.233,4.639-8.233,4.638Z" transform="translate(277.421 284.207)"/><path class="c" d="M102.768-122.317l8.589-4.833v9.667Z" transform="translate(239.723 343.561)"/><path class="c" d="M96.016-113.889l8.356,4.7-8.356,4.7Z" transform="translate(223.972 373.397)"/><path class="c" d="M80.093-83.094l7.458-4.2v8.4Z" transform="translate(186.83 433.235)"/><path class="c" d="M73.3-73.9l6.5,3.661L73.3-66.58Z" transform="translate(170.989 463.355)"/><path class="c" d="M57.807-44.62,62.2-47.1v4.953Z" transform="translate(134.843 523.664)"/><path class="c" d="M50.721-33.685l3.3,1.866-3.3,1.853Z" transform="translate(118.314 553.836)"/><path class="c" d="M35.609-6.328l.879-.492v.983Z" transform="translate(83.063 614.276)"/><path class="c" d="M125.716-188.511l8.35-4.708v9.409Z" transform="translate(293.252 194.926)"/><path class="c" d="M118.894-180.038l8.583,4.84-8.583,4.827Z" transform="translate(277.339 224.579)"/><path class="c" d="M102.76-148.742l8.627-4.859v9.711Z" transform="translate(239.705 284.055)"/><path class="c" d="M95.989-140.378l8.628,4.853-8.628,4.852Z" transform="translate(223.909 313.803)"/><path class="c" d="M79.913-109.188l8.356-4.7v9.4Z" transform="translate(186.409 373.397)"/><path class="c" d="M73.151-100.607,81.158-96.1,73.151-91.59Z" transform="translate(170.636 403.277)"/><path class="c" d="M57.409-70.29l6.379-3.593V-66.7Z" transform="translate(133.916 463.403)"/><path class="c" d="M50.49-60.527,56.1-57.37l-5.61,3.157Z" transform="translate(117.776 493.448)"/><path class="c" d="M35.115-31.8l3.347-1.891v3.775Z" transform="translate(81.91 553.818)"/><path class="c" d="M27.934-20.266l2.172,1.223-2.172,1.216Z" transform="translate(65.16 584.025)"/><path class="c" d="M102.681-175.032l9.022-5.079v10.158Z" transform="translate(239.519 224.414)"/><path class="c" d="M95.95-166.89l9.022,5.079-9.022,5.079Z" transform="translate(223.818 254.158)"/><path class="c" d="M79.781-135.368l9.015-5.079v10.158Z" transform="translate(186.102 313.647)"/><path class="c" d="M73.077-127.178l8.744,4.922-8.744,4.928Z" transform="translate(170.465 343.5)"/><path class="c" d="M57.037-96.015l8.24-4.632v9.271Z" transform="translate(133.047 403.19)"/><path class="c" d="M50.3-87.3l7.5,4.222-7.5,4.222Z" transform="translate(117.332 433.218)"/><path class="c" d="M34.608-57.265l5.881-3.309v6.617Z" transform="translate(80.729 493.344)"/><path class="c" d="M27.67-47.17l4.814,2.716L27.67-41.738Z" transform="translate(64.545 523.498)"/><path class="c" d="M12.442-19.026l2.21-1.248v2.49Z" transform="translate(29.022 584.008)"/><path class="c" d="M5.135-6.87,6.3-6.215,5.135-5.56Z" transform="translate(11.978 614.162)"/><path class="c" d="M95.938-193.354l9.138,5.149-9.138,5.142Z" transform="translate(223.791 194.621)"/><path class="c" d="M79.7-161.654l9.409-5.306v10.6Z" transform="translate(185.921 254.001)"/><path class="c" d="M73.01-153.737l9.416,5.3-9.416,5.3Z" transform="translate(170.306 283.749)"/><path class="c" d="M56.882-122.147l9.015-5.079v10.158Z" transform="translate(132.685 343.391)"/><path class="c" d="M50.172-113.965l8.789,4.947-8.789,4.953Z" transform="translate(117.034 373.227)"/><path class="c" d="M34.205-82.928l7.9-4.437v8.886Z" transform="translate(79.789 433.069)"/><path class="c" d="M27.447-74l7.038,3.964-7.038,3.963Z" transform="translate(64.024 463.145)"/><path class="c" d="M11.844-44.306l5.2-2.93v5.861Z" transform="translate(27.629 523.35)"/><path class="c" d="M4.873-33.766l3.767,2.13L4.873-29.519Z" transform="translate(11.368 553.653)"/><path class="c" d="M79.7-188.1l9.409-5.306v10.6Z" transform="translate(185.921 194.512)"/><path class="c" d="M72.971-180.247l9.81,5.521-9.81,5.521Z" transform="translate(170.216 224.108)"/><path class="c" d="M56.723-148.284l9.81-5.521v11.041Z" transform="translate(132.314 283.597)"/><path class="c" d="M50.11-140.516l9.416,5.3-9.416,5.3Z" transform="translate(116.889 313.494)"/><path class="c" d="M33.98-108.926,43-114.005v10.158Z" transform="translate(79.264 373.136)"/><path class="c" d="M27.284-100.722l8.667,4.878-8.667,4.89Z" transform="translate(63.644 403.019)"/><path class="c" d="M11.453-69.989l7.154-4.027v8.053Z" transform="translate(26.715 463.102)"/><path class="c" d="M4.619-60.649l6.307,3.554L4.619-53.541Z" transform="translate(10.775 493.173)"/><path class="c" d="M56.645-174.57l10.2-5.747v11.488Z" transform="translate(132.133 223.951)"/><path class="c" d="M50.031-167.1l10.2,5.747-10.2,5.741Z" transform="translate(116.704 253.696)"/><path class="c" d="M33.823-135.063l9.81-5.521v11.041Z" transform="translate(78.897 313.341)"/><path class="c" d="M27.17-127.362l9.81,5.521-9.81,5.521Z" transform="translate(63.377 343.085)"/><path class="c" d="M11.078-95.7l9.028-5.079v10.158Z" transform="translate(25.842 402.88)"/><path class="c" d="M4.423-87.433,12.7-82.776,4.423-78.112Z" transform="translate(10.318 432.917)"/><path class="c" d="M50.031-193.538l10.2,5.747-10.2,5.741Z" transform="translate(116.704 194.207)"/><path class="c" d="M33.674-161.213l10.553-5.942v11.879Z" transform="translate(78.549 253.56)"/><path class="c" d="M27.119-153.894l10.321,5.811-10.321,5.81Z" transform="translate(63.26 283.396)"/><path class="c" d="M10.921-121.842l9.81-5.521v11.041Z" transform="translate(25.476 343.085)"/><path class="c" d="M4.27-114.141l9.8,5.521L4.27-103.1Z" transform="translate(9.961 372.83)"/><path class="c" d="M33.664-187.634l10.6-5.974v11.936Z" transform="translate(78.526 194.049)"/><path class="c" d="M27.057-180.447,38-174.277l-10.941,6.163Z" transform="translate(63.115 223.658)"/><path class="c" d="M10.764-147.974l10.6-5.968v11.935Z" transform="translate(25.109 283.287)"/><path class="c" d="M4.194-140.713l10.553,5.943L4.194-128.828Z" transform="translate(9.784 313.049)"/><path class="c" d="M10.685-174.264l10.993-6.189v12.377Z" transform="translate(24.924 223.645)"/><path class="c" d="M4.15-167.232l11,6.188-11,6.189Z" transform="translate(9.68 253.39)"/><path class="c" d="M4.111-193.744,15.5-187.328l-11.394,6.4Z" transform="translate(9.59 193.744)"/><g transform="translate(1150.887 1170.087)"><path class="c" d="M383.569,338.307l.013.006-.013.007Z" transform="translate(-256.153 220.637)"/><path class="c" d="M391.2,325.091l.013-.005v.012Z" transform="translate(-238.349 190.893)"/><path class="c" d="M368.236,364.882l.336-.189v.378Z" transform="translate(-291.92 280)"/><path class="c" d="M383.472,364.581l.989.555-.989.554Z" transform="translate(-256.379 279.746)"/><path class="c" d="M391.005,351.914l1-.554v1.109Z" transform="translate(-238.806 250.002)"/><path class="c" d="M406.406,324.977l.64.359-.64.36Z" transform="translate(-202.881 190.648)"/><path class="c" d="M414.037,312l.336-.189v.378Z" transform="translate(-185.081 161.021)"/><path class="c" d="M429.37,285.42l.013.012h-.013Z" transform="translate(-149.315 101.655)"/><path class="c" d="M360.636,377.916l.336.183-.336.189Z" transform="translate(-309.647 309.748)"/><path class="c" d="M390.862,378.636l1.706-.958V379.6Z" transform="translate(-239.14 309.212)"/><path class="c" d="M406.321,351.272l1.493.838-1.493.845Z" transform="translate(-203.08 249.806)"/><path class="c" d="M413.835,338.832l1.344-.756v1.512Z" transform="translate(-185.552 220.118)"/><path class="c" d="M429.273,311.7l.989.554-.989.555Z" transform="translate(-149.541 160.769)"/><path class="c" d="M436.849,298.95l.775-.441v.875Z" transform="translate(-131.867 131.103)"/><path class="c" d="M452.239,272.145l.336.183-.336.189Z" transform="translate(-95.97 71.788)"/><path class="c" d="M459.846,259.1l.3-.171v.34Z" transform="translate(-78.225 42.053)"/><path class="c" d="M368.1,391.6l1.028-.579v1.153Z" transform="translate(-292.241 339.223)"/><path class="c" d="M383.4,390.9l1.706.964-1.706.958Z" transform="translate(-256.546 338.956)"/><path class="c" d="M406.226,377.552l2.436,1.368-2.436,1.373Z" transform="translate(-203.301 308.928)"/><path class="c" d="M413.616,365.7l2.436-1.374v2.747Z" transform="translate(-186.062 279.18)"/><path class="c" d="M429.164,337.95l2.068,1.166-2.068,1.166Z" transform="translate(-149.794 219.834)"/><path class="c" d="M436.634,325.812l1.854-1.046v2.093Z" transform="translate(-132.37 190.173)"/><path class="c" d="M452.132,298.4l1.389.782-1.389.776Z" transform="translate(-96.219 130.867)"/><path class="c" d="M459.636,285.952l1.345-.762v1.518Z" transform="translate(-78.713 101.136)"/><path class="c" d="M475.094,258.844l.782.442-.782.441Z" transform="translate(-42.657 41.865)"/><path class="c" d="M482.678,246.007l.639-.359v.718Z" transform="translate(-24.966 12.177)"/><path class="c" d="M498.043,219.264l.291.164-.291.17Z" transform="translate(10.877 -47.18)"/><path class="c" d="M505.7,206.1l.013-.006v.019Z" transform="translate(28.745 -76.816)"/><path class="c" d="M345.336,404.548l.336-.189v.378Z" transform="translate(-345.336 369.237)"/><path class="c" d="M360.57,404.246l.989.554-.989.555Z" transform="translate(-309.8 368.984)"/><path class="c" d="M390.717,405.368l2.436-1.374v2.748Z" transform="translate(-239.48 368.417)"/><path class="c" d="M406.156,403.874l3.141,1.764-3.141,1.765Z" transform="translate(-203.464 368.147)"/><path class="c" d="M413.467,392.439l3.186-1.8v3.586Z" transform="translate(-186.411 338.38)"/><path class="c" d="M429.079,364.247,432,365.886l-2.921,1.644Z" transform="translate(-149.993 278.996)"/><path class="c" d="M436.444,352.625l2.805-1.582v3.164Z" transform="translate(-132.813 249.291)"/><path class="c" d="M452.018,324.646l2.546,1.436-2.546,1.437Z" transform="translate(-96.486 189.903)"/><path class="c" d="M459.417,312.817l2.443-1.374v2.748Z" transform="translate(-79.224 160.201)"/><path class="c" d="M474.987,285.1l1.855,1.046-1.855,1.04Z" transform="translate(-42.906 100.939)"/><path class="c" d="M482.464,272.864l1.706-.958v1.922Z" transform="translate(-25.464 71.252)"/><path class="c" d="M497.937,245.524l1.351.762-1.351.757Z" transform="translate(10.629 11.898)"/><path class="c" d="M505.507,232.919l1-.555v1.116Z" transform="translate(28.288 -17.707)"/><path class="c" d="M520.908,205.982l.64.359-.64.365Z" transform="translate(64.213 -77.06)"/><path class="c" d="M528.539,193l.336-.189v.378Z" transform="translate(82.013 -106.687)"/><path class="c" d="M428.982,390.521l3.891,2.193-3.891,2.187Z" transform="translate(-150.219 338.106)"/><path class="c" d="M436.227,379.486l3.891-2.187v4.38Z" transform="translate(-133.32 308.361)"/><path class="c" d="M451.917,350.915l3.555,2-3.555,2Z" transform="translate(-96.721 249.003)"/><path class="c" d="M459.194,339.7l3.554-2V341.7Z" transform="translate(-79.744 219.254)"/><path class="c" d="M474.853,311.316l3.186,1.789-3.186,1.79Z" transform="translate(-43.218 159.914)"/><path class="c" d="M482.243,299.745l2.811-1.588v3.164Z" transform="translate(-25.979 130.309)"/><path class="c" d="M497.828,271.78l2.437,1.368-2.437,1.373Z" transform="translate(10.375 70.968)"/><path class="c" d="M505.292,259.787l2.068-1.166v2.332Z" transform="translate(27.786 41.363)"/><path class="c" d="M520.8,232.24l1.706.958-1.706.964Z" transform="translate(63.964 -17.986)"/><path class="c" d="M528.337,219.837l1.344-.756v1.512Z" transform="translate(81.542 -47.59)"/><path class="c" d="M543.8,192.736l.776.442-.776.441Z" transform="translate(117.603 -106.861)"/><path class="c" d="M551.38,179.9l.633-.359v.719Z" transform="translate(135.294 -136.549)"/><path class="c" d="M436.076,406.227l4.647-2.615v5.231Z" transform="translate(-133.673 367.558)"/><path class="c" d="M451.806,377.168l4.646,2.615-4.646,2.621Z" transform="translate(-96.979 308.064)"/><path class="c" d="M459.02,366.475l4.426-2.49v4.985Z" transform="translate(-80.151 278.407)"/><path class="c" d="M474.744,337.57l4.272,2.4-4.272,2.4Z" transform="translate(-43.471 218.98)"/><path class="c" d="M482,326.667l4.045-2.281v4.556Z" transform="translate(-26.553 189.318)"/><path class="c" d="M497.718,298.029l3.554,2-3.554,2Z" transform="translate(10.118 130.021)"/><path class="c" d="M505.069,286.663l3.186-1.79v3.58Z" transform="translate(27.266 100.425)"/><path class="c" d="M520.693,258.493l2.8,1.582-2.8,1.582Z" transform="translate(63.711 41.075)"/><path class="c" d="M528.118,246.709l2.437-1.373v2.741Z" transform="translate(81.031 11.475)"/><path class="c" d="M543.666,218.957l2.068,1.159-2.068,1.172Z" transform="translate(117.3 -47.87)"/><path class="c" d="M551.165,206.756l1.706-.958v1.916Z" transform="translate(134.792 -77.475)"/><path class="c" d="M566.675,179.48l.989.555-.989.554Z" transform="translate(170.97 -136.684)"/><path class="c" d="M574.272,166.7l.672-.384v.762Z" transform="translate(188.693 -166.311)"/><path class="c" d="M451.731,403.481l5.409,3.043-5.409,3.044Z" transform="translate(-97.155 367.261)"/><path class="c" d="M458.822,393.3l5.415-3.043v6.087Z" transform="translate(-80.613 337.517)"/><path class="c" d="M474.653,363.854l5.183,2.918-5.183,2.924Z" transform="translate(-43.684 278.111)"/><path class="c" d="M481.792,353.506l5.067-2.854v5.709Z" transform="translate(-27.033 248.41)"/><path class="c" d="M497.6,324.275l4.691,2.64-4.691,2.641Z" transform="translate(9.851 189.069)"/><path class="c" d="M504.821,313.589l4.427-2.489v4.979Z" transform="translate(26.686 159.429)"/><path class="c" d="M520.58,284.741l3.93,2.218-3.93,2.206Z" transform="translate(63.449 100.128)"/><path class="c" d="M527.874,273.628l3.664-2.061v4.128Z" transform="translate(80.461 70.488)"/><path class="c" d="M543.556,245.208,546.735,247l-3.179,1.79Z" transform="translate(117.042 11.187)"/><path class="c" d="M550.946,233.626l2.805-1.576v3.164Z" transform="translate(134.281 -18.414)"/><path class="c" d="M566.568,205.736l2.068,1.16-2.068,1.172Z" transform="translate(170.721 -77.614)"/><path class="c" d="M574.067,193.535l1.706-.958v1.916Z" transform="translate(188.213 -107.219)"/><path class="c" d="M474.554,390.125l6.179,3.478-6.179,3.472Z" transform="translate(-43.915 337.216)"/><path class="c" d="M481.568,380.376l6.184-3.472v6.951Z" transform="translate(-27.553 307.471)"/><path class="c" d="M497.493,350.528l5.791,3.258-5.791,3.265Z" transform="translate(9.593 248.131)"/><path class="c" d="M504.592,340.481l5.571-3.138v6.277Z" transform="translate(26.153 218.469)"/><path class="c" d="M520.455,310.967l5.183,2.924-5.183,2.918Z" transform="translate(63.155 159.128)"/><path class="c" d="M527.647,300.521l4.8-2.71v5.407Z" transform="translate(79.932 129.532)"/><path class="c" d="M543.441,271.454l4.311,2.426-4.311,2.426Z" transform="translate(116.775 70.236)"/><path class="c" d="M550.721,260.511l3.929-2.212v4.423Z" transform="translate(133.756 40.64)"/><path class="c" d="M566.456,231.984l3.18,1.79-3.18,1.8Z" transform="translate(170.459 -18.562)"/><path class="c" d="M573.846,220.4l2.811-1.576v3.164Z" transform="translate(187.698 -48.158)"/><path class="c" d="M481.415,407.126l6.947-3.913v7.827Z" transform="translate(-27.911 366.659)"/><path class="c" d="M497.379,376.77l6.947,3.907-6.947,3.92Z" transform="translate(9.326 307.17)"/><path class="c" d="M504.369,367.352l6.682-3.756v7.519Z" transform="translate(25.633 277.53)"/><path class="c" d="M520.338,337.211l6.34,3.567-6.34,3.567Z" transform="translate(62.883 218.172)"/><path class="c" d="M527.372,327.5l6.172-3.478v6.957Z" transform="translate(79.29 188.489)"/><path class="c" d="M543.331,297.707l5.415,3.05-5.415,3.044Z" transform="translate(116.517 129.297)"/><path class="c" d="M550.469,287.448l5.19-2.924v5.835Z" transform="translate(133.168 99.64)"/><path class="c" d="M566.331,258.214l4.421,2.49-4.421,2.489Z" transform="translate(170.169 40.447)"/><path class="c" d="M573.621,247.289l3.935-2.211V249.5Z" transform="translate(187.173 10.895)"/><path class="c" d="M497.3,403.077l7.729,4.355-7.729,4.354Z" transform="translate(9.14 366.353)"/><path class="c" d="M504.16,394.21l7.729-4.354v8.709Z" transform="translate(25.144 336.609)"/><path class="c" d="M520.228,363.46l7.451,4.2-7.451,4.2Z" transform="translate(62.625 277.225)"/><path class="c" d="M527.137,354.392l7.342-4.134v8.268Z" transform="translate(78.742 247.524)"/><path class="c" d="M543.2,323.922l6.722,3.787-6.722,3.782Z" transform="translate(116.214 188.275)"/><path class="c" d="M550.238,314.336l6.34-3.567V317.9Z" transform="translate(132.63 158.683)"/><path class="c" d="M566.194,284.42l5.8,3.264-5.8,3.258Z" transform="translate(169.848 99.404)"/><path class="c" d="M573.371,274.221l5.183-2.918v5.836Z" transform="translate(186.589 69.895)"/><path class="c" d="M520.15,389.769l8.234,4.638-8.234,4.639Z" transform="translate(62.444 336.413)"/><path class="c" d="M526.959,381.184l8.24-4.638v9.276Z" transform="translate(78.326 306.664)"/><path class="c" d="M543.088,350.171l7.846,4.417-7.846,4.418Z" transform="translate(115.952 247.328)"/><path class="c" d="M550.008,341.232l7.5-4.222v8.444Z" transform="translate(132.091 217.718)"/><path class="c" d="M566.077,310.66l6.953,3.92-6.953,3.914Z" transform="translate(169.577 158.439)"/><path class="c" d="M573.093,301.206l6.565-3.7V304.9Z" transform="translate(185.943 128.847)"/><path class="c" d="M526.8,407.933l9.015-5.079v10.158Z" transform="translate(77.964 365.852)"/><path class="c" d="M542.972,376.412l9.015,5.073-9.015,5.08Z" transform="translate(115.68 306.363)"/><path class="c" d="M549.781,368.111l8.627-4.852v9.711Z" transform="translate(131.562 276.771)"/><path class="c" d="M565.949,336.882l8.24,4.638-8.24,4.638Z" transform="translate(169.278 217.431)"/><path class="c" d="M572.837,328.145l7.846-4.417v8.835Z" transform="translate(185.345 187.839)"/><path class="c" d="M542.893,402.718l9.8,5.52-9.8,5.52Z" transform="translate(115.495 365.547)"/><path class="c" d="M549.546,395.021l9.8-5.526v11.047Z" transform="translate(131.015 335.798)"/><path class="c" d="M565.845,363.142l9.293,5.231-9.293,5.237Z" transform="translate(169.034 276.51)"/><path class="c" d="M572.6,355.046l9.022-5.079v10.159Z" transform="translate(184.798 246.87)"/><path class="c" d="M565.754,389.427l10.2,5.747-10.2,5.741Z" transform="translate(168.821 335.645)"/><path class="c" d="M572.391,381.9l10.082-5.672v11.35Z" transform="translate(184.305 305.948)"/><path class="c" d="M572.209,408.7l10.993-6.188v12.376Z" transform="translate(183.88 365.084)"/></g></g></g></g></g></svg>